<?xml version="1.0" encoding="UTF-8"?>
<!DOCTYPE svg PUBLIC "-//W3C//DTD SVG 1.1//EN" "http://www.w3.org/Graphics/SVG/1.1/DTD/svg11.dtd">
<!-- Creator: CorelDRAW X6 -->
<svg xmlns="http://www.w3.org/2000/svg" xml:space="preserve" width="300mm" height="300mm" version="1.1" shape-rendering="geometricPrecision" text-rendering="geometricPrecision" image-rendering="optimizeQuality" fill-rule="evenodd" clip-rule="evenodd"
viewBox="0 0 30000 30000"
 xmlns:xlink="http://www.w3.org/1999/xlink">
 <g id="Layer_x0020_1">
  <metadata id="CorelCorpID_0Corel-Layer"/>
  <g id="_938679600">
   <path fill="none" stroke="black" stroke-width="52.92" stroke-linecap="round" stroke-linejoin="round" d="M1550 27950l0 -25900c0,-276 224,-500 500,-500l25900 0c276,0 500,224 500,500l0 25900c0,276 -224,500 -500,500l-25900 0c-276,0 -500,-224 -500,-500z"/>
   <circle fill="none" stroke="black" stroke-width="52.92" stroke-linecap="round" stroke-linejoin="round" cx="15000" cy="15000" r="300"/>
   <circle fill="none" stroke="black" stroke-width="52.92" stroke-linecap="round" stroke-linejoin="round" cx="15000" cy="13500" r="300"/>
   <circle fill="none" stroke="black" stroke-width="52.92" stroke-linecap="round" stroke-linejoin="round" cx="15000" cy="16500" r="300"/>
   <circle fill="none" stroke="black" stroke-width="52.92" stroke-linecap="round" stroke-linejoin="round" cx="16500" cy="15000" r="300"/>
   <circle fill="none" stroke="black" stroke-width="52.92" stroke-linecap="round" stroke-linejoin="round" cx="16500" cy="13500" r="300"/>
   <circle fill="none" stroke="black" stroke-width="52.92" stroke-linecap="round" stroke-linejoin="round" cx="16500" cy="16500" r="300"/>
   <circle fill="none" stroke="black" stroke-width="52.92" stroke-linecap="round" stroke-linejoin="round" cx="14250" cy="16500" r="150"/>
   <circle fill="none" stroke="black" stroke-width="52.92" stroke-linecap="round" stroke-linejoin="round" cx="15750" cy="16500" r="150"/>
   <circle fill="none" stroke="black" stroke-width="52.92" stroke-linecap="round" stroke-linejoin="round" cx="14250" cy="15000" r="150"/>
   <circle fill="none" stroke="black" stroke-width="52.92" stroke-linecap="round" stroke-linejoin="round" cx="15750" cy="15000" r="150"/>
   <circle fill="none" stroke="black" stroke-width="52.92" stroke-linecap="round" stroke-linejoin="round" cx="14250" cy="13500" r="150"/>
   <circle fill="none" stroke="black" stroke-width="52.92" stroke-linecap="round" stroke-linejoin="round" cx="15750" cy="13500" r="150"/>
   <circle fill="none" stroke="black" stroke-width="52.92" stroke-linecap="round" stroke-linejoin="round" cx="15000" cy="15750" r="150"/>
   <circle fill="none" stroke="black" stroke-width="52.92" stroke-linecap="round" stroke-linejoin="round" cx="16500" cy="15750" r="150"/>
   <circle fill="none" stroke="black" stroke-width="52.92" stroke-linecap="round" stroke-linejoin="round" cx="15000" cy="14250" r="150"/>
   <circle fill="none" stroke="black" stroke-width="52.92" stroke-linecap="round" stroke-linejoin="round" cx="16500" cy="14250" r="150"/>
   <circle fill="none" stroke="black" stroke-width="52.92" stroke-linecap="round" stroke-linejoin="round" cx="13500" cy="15000" r="300"/>
   <circle fill="none" stroke="black" stroke-width="52.92" stroke-linecap="round" stroke-linejoin="round" cx="13500" cy="13500" r="300"/>
   <circle fill="none" stroke="black" stroke-width="52.92" stroke-linecap="round" stroke-linejoin="round" cx="13500" cy="16500" r="300"/>
   <circle fill="none" stroke="black" stroke-width="52.92" stroke-linecap="round" stroke-linejoin="round" cx="13500" cy="15750" r="150"/>
   <circle fill="none" stroke="black" stroke-width="52.92" stroke-linecap="round" stroke-linejoin="round" cx="13500" cy="14250" r="150"/>
  </g>
  <circle fill="none" stroke="aqua" stroke-width="52.92" stroke-linecap="round" stroke-linejoin="round" cx="8500" cy="8500" r="6500"/>
  <circle fill="none" stroke="aqua" stroke-width="52.92" stroke-linecap="round" stroke-linejoin="round" cx="21500" cy="8500" r="6500"/>
  <circle fill="none" stroke="aqua" stroke-width="52.92" stroke-linecap="round" stroke-linejoin="round" cx="8500" cy="21500" r="6500"/>
  <circle fill="none" stroke="black" stroke-width="52.92" stroke-linecap="round" stroke-linejoin="round" cx="21500" cy="21500" r="6100"/>
  <circle fill="none" stroke="aqua" stroke-width="52.92" stroke-linecap="round" stroke-linejoin="round" cx="21500" cy="21500" r="6500"/>
  <circle fill="none" stroke="black" stroke-width="52.92" stroke-linecap="round" stroke-linejoin="round" cx="21500" cy="8500" r="6100"/>
  <circle fill="none" stroke="black" stroke-width="52.92" stroke-linecap="round" stroke-linejoin="round" cx="8500" cy="8500" r="6100"/>
  <circle fill="none" stroke="black" stroke-width="52.92" stroke-linecap="round" stroke-linejoin="round" cx="8500" cy="21500" r="6100"/>
 </g>
</svg>
