<?xml version="1.0" encoding="UTF-8"?>
<!DOCTYPE svg PUBLIC "-//W3C//DTD SVG 1.1//EN" "http://www.w3.org/Graphics/SVG/1.1/DTD/svg11.dtd">
<!-- Creator: CorelDRAW X6 -->
<svg xmlns="http://www.w3.org/2000/svg" xml:space="preserve" width="900mm" height="900mm" version="1.1" shape-rendering="geometricPrecision" text-rendering="geometricPrecision" image-rendering="optimizeQuality" fill-rule="evenodd" clip-rule="evenodd"
viewBox="0 0 90000 90000"
 xmlns:xlink="http://www.w3.org/1999/xlink">
 <g id="Layer_x0020_1">
  <metadata id="CorelCorpID_0Corel-Layer"/>
  <g id="_719771424">
   <path fill="none" stroke="black" stroke-width="52.92" stroke-linecap="round" stroke-linejoin="round" d="M5500 84000l0 -78000c0,-276 724,-500 1000,-500l77500 0c276,0 500,224 500,500l0 78000c0,276 -224,500 -500,500l-78000 0c-276,0 -500,-224 -500,-500z"/>
   <circle fill="none" stroke="aqua" stroke-width="52.92" stroke-linecap="round" stroke-linejoin="round" cx="25500" cy="12500" r="6500"/>
   <circle fill="none" stroke="black" stroke-width="52.92" stroke-linecap="round" stroke-linejoin="round" cx="25500" cy="12500" r="6025"/>
   <circle fill="none" stroke="aqua" stroke-width="52.92" stroke-linecap="round" stroke-linejoin="round" cx="38500" cy="12500" r="6500"/>
   <circle fill="none" stroke="black" stroke-width="52.92" stroke-linecap="round" stroke-linejoin="round" cx="38500" cy="12500" r="6025"/>
   <circle fill="none" stroke="aqua" stroke-width="52.92" stroke-linecap="round" stroke-linejoin="round" cx="51500" cy="12500" r="6500"/>
   <circle fill="none" stroke="black" stroke-width="52.92" stroke-linecap="round" stroke-linejoin="round" cx="51500" cy="12500" r="6025"/>
   <circle fill="none" stroke="aqua" stroke-width="52.92" stroke-linecap="round" stroke-linejoin="round" cx="64500" cy="12500" r="6500"/>
   <circle fill="none" stroke="black" stroke-width="52.92" stroke-linecap="round" stroke-linejoin="round" cx="64500" cy="12500" r="6025"/>
   <circle fill="none" stroke="aqua" stroke-width="52.92" stroke-linecap="round" stroke-linejoin="round" cx="77500" cy="12500" r="6500"/>
   <circle fill="none" stroke="black" stroke-width="52.92" stroke-linecap="round" stroke-linejoin="round" cx="77500" cy="12500" r="6025"/>
   <circle fill="none" stroke="aqua" stroke-width="52.92" stroke-linecap="round" stroke-linejoin="round" cx="12500" cy="12500" r="6500"/>
   <circle fill="none" stroke="black" stroke-width="52.92" stroke-linecap="round" stroke-linejoin="round" cx="12500" cy="12500" r="6025"/>
   <circle fill="none" stroke="aqua" stroke-width="52.92" stroke-linecap="round" stroke-linejoin="round" cx="25500" cy="25500" r="6500"/>
   <circle fill="none" stroke="black" stroke-width="52.92" stroke-linecap="round" stroke-linejoin="round" cx="25500" cy="25500" r="6025"/>
   <circle fill="none" stroke="aqua" stroke-width="52.92" stroke-linecap="round" stroke-linejoin="round" cx="38500" cy="25500" r="6500"/>
   <circle fill="none" stroke="black" stroke-width="52.92" stroke-linecap="round" stroke-linejoin="round" cx="38500" cy="25500" r="6025"/>
   <circle fill="none" stroke="aqua" stroke-width="52.92" stroke-linecap="round" stroke-linejoin="round" cx="51500" cy="25500" r="6500"/>
   <circle fill="none" stroke="black" stroke-width="52.92" stroke-linecap="round" stroke-linejoin="round" cx="51500" cy="25500" r="6025"/>
   <circle fill="none" stroke="aqua" stroke-width="52.92" stroke-linecap="round" stroke-linejoin="round" cx="64500" cy="25500" r="6500"/>
   <circle fill="none" stroke="black" stroke-width="52.92" stroke-linecap="round" stroke-linejoin="round" cx="64500" cy="25500" r="6025"/>
   <circle fill="none" stroke="aqua" stroke-width="52.92" stroke-linecap="round" stroke-linejoin="round" cx="77500" cy="25500" r="6500"/>
   <circle fill="none" stroke="black" stroke-width="52.92" stroke-linecap="round" stroke-linejoin="round" cx="77500" cy="25500" r="6025"/>
   <circle fill="none" stroke="aqua" stroke-width="52.92" stroke-linecap="round" stroke-linejoin="round" cx="12500" cy="25500" r="6500"/>
   <circle fill="none" stroke="black" stroke-width="52.92" stroke-linecap="round" stroke-linejoin="round" cx="12500" cy="25500" r="6025"/>
   <circle fill="none" stroke="aqua" stroke-width="52.92" stroke-linecap="round" stroke-linejoin="round" cx="25500" cy="38500" r="6500"/>
   <circle fill="none" stroke="black" stroke-width="52.92" stroke-linecap="round" stroke-linejoin="round" cx="25500" cy="38500" r="6025"/>
   <circle fill="none" stroke="aqua" stroke-width="52.92" stroke-linecap="round" stroke-linejoin="round" cx="38500" cy="38500" r="6500"/>
   <circle fill="none" stroke="black" stroke-width="52.92" stroke-linecap="round" stroke-linejoin="round" cx="38500" cy="38500" r="6025"/>
   <circle fill="none" stroke="aqua" stroke-width="52.92" stroke-linecap="round" stroke-linejoin="round" cx="51500" cy="38500" r="6500"/>
   <circle fill="none" stroke="black" stroke-width="52.92" stroke-linecap="round" stroke-linejoin="round" cx="51500" cy="38500" r="6025"/>
   <circle fill="none" stroke="aqua" stroke-width="52.92" stroke-linecap="round" stroke-linejoin="round" cx="64500" cy="38500" r="6500"/>
   <circle fill="none" stroke="black" stroke-width="52.92" stroke-linecap="round" stroke-linejoin="round" cx="64500" cy="38500" r="6025"/>
   <circle fill="none" stroke="aqua" stroke-width="52.92" stroke-linecap="round" stroke-linejoin="round" cx="77500" cy="38500" r="6500"/>
   <circle fill="none" stroke="black" stroke-width="52.92" stroke-linecap="round" stroke-linejoin="round" cx="77500" cy="38500" r="6025"/>
   <circle fill="none" stroke="aqua" stroke-width="52.92" stroke-linecap="round" stroke-linejoin="round" cx="12500" cy="38500" r="6500"/>
   <circle fill="none" stroke="black" stroke-width="52.92" stroke-linecap="round" stroke-linejoin="round" cx="12500" cy="38500" r="6025"/>
   <circle fill="none" stroke="aqua" stroke-width="52.92" stroke-linecap="round" stroke-linejoin="round" cx="25500" cy="51500" r="6500"/>
   <circle fill="none" stroke="black" stroke-width="52.92" stroke-linecap="round" stroke-linejoin="round" cx="25500" cy="51500" r="6025"/>
   <circle fill="none" stroke="aqua" stroke-width="52.92" stroke-linecap="round" stroke-linejoin="round" cx="38500" cy="51500" r="6500"/>
   <circle fill="none" stroke="black" stroke-width="52.92" stroke-linecap="round" stroke-linejoin="round" cx="38500" cy="51500" r="6025"/>
   <circle fill="none" stroke="aqua" stroke-width="52.92" stroke-linecap="round" stroke-linejoin="round" cx="51500" cy="51500" r="6500"/>
   <circle fill="none" stroke="black" stroke-width="52.92" stroke-linecap="round" stroke-linejoin="round" cx="51500" cy="51500" r="6025"/>
   <circle fill="none" stroke="aqua" stroke-width="52.92" stroke-linecap="round" stroke-linejoin="round" cx="64500" cy="51500" r="6500"/>
   <circle fill="none" stroke="black" stroke-width="52.92" stroke-linecap="round" stroke-linejoin="round" cx="64500" cy="51500" r="6025"/>
   <circle fill="none" stroke="aqua" stroke-width="52.92" stroke-linecap="round" stroke-linejoin="round" cx="77500" cy="51500" r="6500"/>
   <circle fill="none" stroke="black" stroke-width="52.92" stroke-linecap="round" stroke-linejoin="round" cx="77500" cy="51500" r="6025"/>
   <circle fill="none" stroke="aqua" stroke-width="52.92" stroke-linecap="round" stroke-linejoin="round" cx="12500" cy="51500" r="6500"/>
   <circle fill="none" stroke="black" stroke-width="52.92" stroke-linecap="round" stroke-linejoin="round" cx="12500" cy="51500" r="6025"/>
   <circle fill="none" stroke="aqua" stroke-width="52.92" stroke-linecap="round" stroke-linejoin="round" cx="25500" cy="64500" r="6500"/>
   <circle fill="none" stroke="black" stroke-width="52.92" stroke-linecap="round" stroke-linejoin="round" cx="25500" cy="64500" r="6025"/>
   <circle fill="none" stroke="aqua" stroke-width="52.92" stroke-linecap="round" stroke-linejoin="round" cx="38500" cy="64500" r="6500"/>
   <circle fill="none" stroke="black" stroke-width="52.92" stroke-linecap="round" stroke-linejoin="round" cx="38500" cy="64500" r="6025"/>
   <circle fill="none" stroke="aqua" stroke-width="52.92" stroke-linecap="round" stroke-linejoin="round" cx="51500" cy="64500" r="6500"/>
   <circle fill="none" stroke="black" stroke-width="52.92" stroke-linecap="round" stroke-linejoin="round" cx="51500" cy="64500" r="6025"/>
   <circle fill="none" stroke="aqua" stroke-width="52.92" stroke-linecap="round" stroke-linejoin="round" cx="64500" cy="64500" r="6500"/>
   <circle fill="none" stroke="black" stroke-width="52.92" stroke-linecap="round" stroke-linejoin="round" cx="64500" cy="64500" r="6025"/>
   <circle fill="none" stroke="aqua" stroke-width="52.92" stroke-linecap="round" stroke-linejoin="round" cx="77500" cy="64500" r="6500"/>
   <circle fill="none" stroke="black" stroke-width="52.92" stroke-linecap="round" stroke-linejoin="round" cx="77500" cy="64500" r="6025"/>
   <circle fill="none" stroke="aqua" stroke-width="52.92" stroke-linecap="round" stroke-linejoin="round" cx="12500" cy="64500" r="6500"/>
   <circle fill="none" stroke="black" stroke-width="52.92" stroke-linecap="round" stroke-linejoin="round" cx="12500" cy="64500" r="6025"/>
   <circle fill="none" stroke="aqua" stroke-width="52.92" stroke-linecap="round" stroke-linejoin="round" cx="25500" cy="77500" r="6500"/>
   <circle fill="none" stroke="black" stroke-width="52.92" stroke-linecap="round" stroke-linejoin="round" cx="25500" cy="77500" r="6025"/>
   <circle fill="none" stroke="aqua" stroke-width="52.92" stroke-linecap="round" stroke-linejoin="round" cx="38500" cy="77500" r="6500"/>
   <circle fill="none" stroke="black" stroke-width="52.92" stroke-linecap="round" stroke-linejoin="round" cx="38500" cy="77500" r="6025"/>
   <circle fill="none" stroke="aqua" stroke-width="52.92" stroke-linecap="round" stroke-linejoin="round" cx="51500" cy="77500" r="6500"/>
   <circle fill="none" stroke="black" stroke-width="52.92" stroke-linecap="round" stroke-linejoin="round" cx="51500" cy="77500" r="6025"/>
   <circle fill="none" stroke="aqua" stroke-width="52.92" stroke-linecap="round" stroke-linejoin="round" cx="64500" cy="77500" r="6500"/>
   <circle fill="none" stroke="black" stroke-width="52.92" stroke-linecap="round" stroke-linejoin="round" cx="64500" cy="77500" r="6025"/>
   <circle fill="none" stroke="aqua" stroke-width="52.92" stroke-linecap="round" stroke-linejoin="round" cx="77500" cy="77500" r="6500"/>
   <circle fill="none" stroke="black" stroke-width="52.92" stroke-linecap="round" stroke-linejoin="round" cx="77500" cy="77500" r="6025"/>
   <circle fill="none" stroke="aqua" stroke-width="52.92" stroke-linecap="round" stroke-linejoin="round" cx="12500" cy="77500" r="6500"/>
   <circle fill="none" stroke="black" stroke-width="52.92" stroke-linecap="round" stroke-linejoin="round" cx="12500" cy="77500" r="6025"/>
   <g>
    <circle fill="none" stroke="black" stroke-width="52.92" stroke-linecap="round" stroke-linejoin="round" cx="42000" cy="45000" r="150"/>
    <circle fill="none" stroke="black" stroke-width="52.92" stroke-linecap="round" stroke-linejoin="round" cx="48000" cy="45000" r="150"/>
    <circle fill="none" stroke="black" stroke-width="52.92" stroke-linecap="round" stroke-linejoin="round" cx="45000" cy="42000" r="150"/>
    <circle fill="none" stroke="black" stroke-width="52.92" stroke-linecap="round" stroke-linejoin="round" cx="45000" cy="48000" r="150"/>
    <path fill="none" stroke="black" stroke-width="52.92" stroke-linecap="round" stroke-linejoin="round" d="M44646 46697l-1344 -1344c-195,-195 -195,-512 0,-707l1344 -1344c195,-195 512,-195 707,0l1344 1344c195,195 195,512 0,707l-1344 1344c-195,195 -512,195 -707,0z"/>
   </g>
   <g>
    <circle fill="none" stroke="black" stroke-width="52.92" stroke-linecap="round" stroke-linejoin="round" cx="42000" cy="32000" r="150"/>
    <circle fill="none" stroke="black" stroke-width="52.92" stroke-linecap="round" stroke-linejoin="round" cx="48000" cy="32000" r="150"/>
    <circle fill="none" stroke="black" stroke-width="52.92" stroke-linecap="round" stroke-linejoin="round" cx="45000" cy="29000" r="150"/>
    <circle fill="none" stroke="black" stroke-width="52.92" stroke-linecap="round" stroke-linejoin="round" cx="45000" cy="35000" r="150"/>
    <path fill="none" stroke="black" stroke-width="52.92" stroke-linecap="round" stroke-linejoin="round" d="M44646 33697l-1344 -1344c-195,-195 -195,-512 0,-707l1344 -1344c195,-195 512,-195 707,0l1344 1344c195,195 195,512 0,707l-1344 1344c-195,195 -512,195 -707,0z"/>
   </g>
   <circle fill="none" stroke="black" stroke-width="52.92" stroke-linecap="round" stroke-linejoin="round" cx="42000" cy="19000" r="150"/>
   <circle fill="none" stroke="black" stroke-width="52.92" stroke-linecap="round" stroke-linejoin="round" cx="48000" cy="19000" r="150"/>
   <circle fill="none" stroke="black" stroke-width="52.92" stroke-linecap="round" stroke-linejoin="round" cx="45000" cy="16000" r="150"/>
   <circle fill="none" stroke="black" stroke-width="52.92" stroke-linecap="round" stroke-linejoin="round" cx="45000" cy="22000" r="150"/>
   <path fill="none" stroke="black" stroke-width="52.92" stroke-linecap="round" stroke-linejoin="round" d="M44646 20697l-1344 -1344c-195,-195 -195,-512 0,-707l1344 -1344c195,-195 512,-195 707,0l1344 1344c195,195 195,512 0,707l-1344 1344c-195,195 -512,195 -707,0z"/>
   <g>
    <circle fill="none" stroke="black" stroke-width="52.92" stroke-linecap="round" stroke-linejoin="round" cx="42000" cy="71000" r="150"/>
    <circle fill="none" stroke="black" stroke-width="52.92" stroke-linecap="round" stroke-linejoin="round" cx="48000" cy="71000" r="150"/>
    <circle fill="none" stroke="black" stroke-width="52.92" stroke-linecap="round" stroke-linejoin="round" cx="45000" cy="68000" r="150"/>
    <circle fill="none" stroke="black" stroke-width="52.92" stroke-linecap="round" stroke-linejoin="round" cx="45000" cy="74000" r="150"/>
    <path fill="none" stroke="black" stroke-width="52.92" stroke-linecap="round" stroke-linejoin="round" d="M44646 72697l-1344 -1344c-195,-195 -195,-512 0,-707l1344 -1344c195,-195 512,-195 707,0l1344 1344c195,195 195,512 0,707l-1344 1344c-195,195 -512,195 -707,0z"/>
   </g>
   <g>
    <circle fill="none" stroke="black" stroke-width="52.92" stroke-linecap="round" stroke-linejoin="round" cx="42000" cy="58000" r="150"/>
    <circle fill="none" stroke="black" stroke-width="52.92" stroke-linecap="round" stroke-linejoin="round" cx="48000" cy="58000" r="150"/>
    <circle fill="none" stroke="black" stroke-width="52.92" stroke-linecap="round" stroke-linejoin="round" cx="45000" cy="55000" r="150"/>
    <circle fill="none" stroke="black" stroke-width="52.92" stroke-linecap="round" stroke-linejoin="round" cx="45000" cy="61000" r="150"/>
    <path fill="none" stroke="black" stroke-width="52.92" stroke-linecap="round" stroke-linejoin="round" d="M44646 59697l-1344 -1344c-195,-195 -195,-512 0,-707l1344 -1344c195,-195 512,-195 707,0l1344 1344c195,195 195,512 0,707l-1344 1344c-195,195 -512,195 -707,0z"/>
   </g>
   <circle fill="none" stroke="black" stroke-width="52.92" stroke-linecap="round" stroke-linejoin="round" cx="45000" cy="81000" r="150"/>
   <circle fill="none" stroke="black" stroke-width="52.92" stroke-linecap="round" stroke-linejoin="round" cx="45000" cy="9000" r="150"/>
   <g>
    <circle fill="none" stroke="black" stroke-width="52.92" stroke-linecap="round" stroke-linejoin="round" cx="29000" cy="45000" r="150"/>
    <circle fill="none" stroke="black" stroke-width="52.92" stroke-linecap="round" stroke-linejoin="round" cx="35000" cy="45000" r="150"/>
    <circle fill="none" stroke="black" stroke-width="52.92" stroke-linecap="round" stroke-linejoin="round" cx="32000" cy="42000" r="150"/>
    <circle fill="none" stroke="black" stroke-width="52.92" stroke-linecap="round" stroke-linejoin="round" cx="32000" cy="48000" r="150"/>
    <path fill="none" stroke="black" stroke-width="52.92" stroke-linecap="round" stroke-linejoin="round" d="M31646 46697l-1344 -1344c-195,-195 -195,-512 0,-707l1344 -1344c195,-195 512,-195 707,0l1344 1344c195,195 195,512 0,707l-1344 1344c-195,195 -512,195 -707,0z"/>
   </g>
   <g>
    <circle fill="none" stroke="black" stroke-width="52.92" stroke-linecap="round" stroke-linejoin="round" cx="29000" cy="32000" r="150"/>
    <circle fill="none" stroke="black" stroke-width="52.92" stroke-linecap="round" stroke-linejoin="round" cx="35000" cy="32000" r="150"/>
    <circle fill="none" stroke="black" stroke-width="52.92" stroke-linecap="round" stroke-linejoin="round" cx="32000" cy="29000" r="150"/>
    <circle fill="none" stroke="black" stroke-width="52.92" stroke-linecap="round" stroke-linejoin="round" cx="32000" cy="35000" r="150"/>
    <path fill="none" stroke="black" stroke-width="52.92" stroke-linecap="round" stroke-linejoin="round" d="M31646 33697l-1344 -1344c-195,-195 -195,-512 0,-707l1344 -1344c195,-195 512,-195 707,0l1344 1344c195,195 195,512 0,707l-1344 1344c-195,195 -512,195 -707,0z"/>
   </g>
   <circle fill="none" stroke="black" stroke-width="52.92" stroke-linecap="round" stroke-linejoin="round" cx="29000" cy="19000" r="150"/>
   <circle fill="none" stroke="black" stroke-width="52.92" stroke-linecap="round" stroke-linejoin="round" cx="35000" cy="19000" r="150"/>
   <circle fill="none" stroke="black" stroke-width="52.92" stroke-linecap="round" stroke-linejoin="round" cx="32000" cy="16000" r="150"/>
   <circle fill="none" stroke="black" stroke-width="52.92" stroke-linecap="round" stroke-linejoin="round" cx="32000" cy="22000" r="150"/>
   <path fill="none" stroke="black" stroke-width="52.92" stroke-linecap="round" stroke-linejoin="round" d="M31646 20697l-1344 -1344c-195,-195 -195,-512 0,-707l1344 -1344c195,-195 512,-195 707,0l1344 1344c195,195 195,512 0,707l-1344 1344c-195,195 -512,195 -707,0z"/>
   <g>
    <circle fill="none" stroke="black" stroke-width="52.92" stroke-linecap="round" stroke-linejoin="round" cx="29000" cy="71000" r="150"/>
    <circle fill="none" stroke="black" stroke-width="52.92" stroke-linecap="round" stroke-linejoin="round" cx="35000" cy="71000" r="150"/>
    <circle fill="none" stroke="black" stroke-width="52.92" stroke-linecap="round" stroke-linejoin="round" cx="32000" cy="68000" r="150"/>
    <circle fill="none" stroke="black" stroke-width="52.92" stroke-linecap="round" stroke-linejoin="round" cx="32000" cy="74000" r="150"/>
    <path fill="none" stroke="black" stroke-width="52.92" stroke-linecap="round" stroke-linejoin="round" d="M31646 72697l-1344 -1344c-195,-195 -195,-512 0,-707l1344 -1344c195,-195 512,-195 707,0l1344 1344c195,195 195,512 0,707l-1344 1344c-195,195 -512,195 -707,0z"/>
   </g>
   <g>
    <circle fill="none" stroke="black" stroke-width="52.92" stroke-linecap="round" stroke-linejoin="round" cx="29000" cy="58000" r="150"/>
    <circle fill="none" stroke="black" stroke-width="52.92" stroke-linecap="round" stroke-linejoin="round" cx="35000" cy="58000" r="150"/>
    <circle fill="none" stroke="black" stroke-width="52.92" stroke-linecap="round" stroke-linejoin="round" cx="32000" cy="55000" r="150"/>
    <circle fill="none" stroke="black" stroke-width="52.92" stroke-linecap="round" stroke-linejoin="round" cx="32000" cy="61000" r="150"/>
    <path fill="none" stroke="black" stroke-width="52.92" stroke-linecap="round" stroke-linejoin="round" d="M31646 59697l-1344 -1344c-195,-195 -195,-512 0,-707l1344 -1344c195,-195 512,-195 707,0l1344 1344c195,195 195,512 0,707l-1344 1344c-195,195 -512,195 -707,0z"/>
   </g>
   <circle fill="none" stroke="black" stroke-width="52.92" stroke-linecap="round" stroke-linejoin="round" cx="32000" cy="81000" r="150"/>
   <circle fill="none" stroke="black" stroke-width="52.92" stroke-linecap="round" stroke-linejoin="round" cx="32000" cy="9000" r="150"/>
   <g>
    <circle fill="none" stroke="black" stroke-width="52.92" stroke-linecap="round" stroke-linejoin="round" cx="16000" cy="45000" r="150"/>
    <circle fill="none" stroke="black" stroke-width="52.92" stroke-linecap="round" stroke-linejoin="round" cx="22000" cy="45000" r="150"/>
    <circle fill="none" stroke="black" stroke-width="52.92" stroke-linecap="round" stroke-linejoin="round" cx="19000" cy="42000" r="150"/>
    <circle fill="none" stroke="black" stroke-width="52.92" stroke-linecap="round" stroke-linejoin="round" cx="19000" cy="48000" r="150"/>
    <path fill="none" stroke="black" stroke-width="52.92" stroke-linecap="round" stroke-linejoin="round" d="M18646 46697l-1344 -1344c-195,-195 -195,-512 0,-707l1344 -1344c195,-195 512,-195 707,0l1344 1344c195,195 195,512 0,707l-1344 1344c-195,195 -512,195 -707,0z"/>
   </g>
   <g>
    <circle fill="none" stroke="black" stroke-width="52.92" stroke-linecap="round" stroke-linejoin="round" cx="16000" cy="32000" r="150"/>
    <circle fill="none" stroke="black" stroke-width="52.92" stroke-linecap="round" stroke-linejoin="round" cx="22000" cy="32000" r="150"/>
    <circle fill="none" stroke="black" stroke-width="52.92" stroke-linecap="round" stroke-linejoin="round" cx="19000" cy="29000" r="150"/>
    <circle fill="none" stroke="black" stroke-width="52.92" stroke-linecap="round" stroke-linejoin="round" cx="19000" cy="35000" r="150"/>
    <path fill="none" stroke="black" stroke-width="52.92" stroke-linecap="round" stroke-linejoin="round" d="M18646 33697l-1344 -1344c-195,-195 -195,-512 0,-707l1344 -1344c195,-195 512,-195 707,0l1344 1344c195,195 195,512 0,707l-1344 1344c-195,195 -512,195 -707,0z"/>
   </g>
   <circle fill="none" stroke="black" stroke-width="52.92" stroke-linecap="round" stroke-linejoin="round" cx="16000" cy="19000" r="150"/>
   <circle fill="none" stroke="black" stroke-width="52.92" stroke-linecap="round" stroke-linejoin="round" cx="22000" cy="19000" r="150"/>
   <circle fill="none" stroke="black" stroke-width="52.92" stroke-linecap="round" stroke-linejoin="round" cx="19000" cy="16000" r="150"/>
   <circle fill="none" stroke="black" stroke-width="52.92" stroke-linecap="round" stroke-linejoin="round" cx="19000" cy="22000" r="150"/>
   <path fill="none" stroke="black" stroke-width="52.92" stroke-linecap="round" stroke-linejoin="round" d="M18646 20697l-1344 -1344c-195,-195 -195,-512 0,-707l1344 -1344c195,-195 512,-195 707,0l1344 1344c195,195 195,512 0,707l-1344 1344c-195,195 -512,195 -707,0z"/>
   <g>
    <circle fill="none" stroke="black" stroke-width="52.92" stroke-linecap="round" stroke-linejoin="round" cx="16000" cy="71000" r="150"/>
    <circle fill="none" stroke="black" stroke-width="52.92" stroke-linecap="round" stroke-linejoin="round" cx="22000" cy="71000" r="150"/>
    <circle fill="none" stroke="black" stroke-width="52.92" stroke-linecap="round" stroke-linejoin="round" cx="19000" cy="68000" r="150"/>
    <circle fill="none" stroke="black" stroke-width="52.92" stroke-linecap="round" stroke-linejoin="round" cx="19000" cy="74000" r="150"/>
    <path fill="none" stroke="black" stroke-width="52.92" stroke-linecap="round" stroke-linejoin="round" d="M18646 72697l-1344 -1344c-195,-195 -195,-512 0,-707l1344 -1344c195,-195 512,-195 707,0l1344 1344c195,195 195,512 0,707l-1344 1344c-195,195 -512,195 -707,0z"/>
   </g>
   <g>
    <circle fill="none" stroke="black" stroke-width="52.92" stroke-linecap="round" stroke-linejoin="round" cx="16000" cy="58000" r="150"/>
    <circle fill="none" stroke="black" stroke-width="52.92" stroke-linecap="round" stroke-linejoin="round" cx="22000" cy="58000" r="150"/>
    <circle fill="none" stroke="black" stroke-width="52.92" stroke-linecap="round" stroke-linejoin="round" cx="19000" cy="55000" r="150"/>
    <circle fill="none" stroke="black" stroke-width="52.92" stroke-linecap="round" stroke-linejoin="round" cx="19000" cy="61000" r="150"/>
    <path fill="none" stroke="black" stroke-width="52.92" stroke-linecap="round" stroke-linejoin="round" d="M18646 59697l-1344 -1344c-195,-195 -195,-512 0,-707l1344 -1344c195,-195 512,-195 707,0l1344 1344c195,195 195,512 0,707l-1344 1344c-195,195 -512,195 -707,0z"/>
   </g>
   <circle fill="none" stroke="black" stroke-width="52.92" stroke-linecap="round" stroke-linejoin="round" cx="19000" cy="81000" r="150"/>
   <circle fill="none" stroke="black" stroke-width="52.92" stroke-linecap="round" stroke-linejoin="round" cx="19000" cy="9000" r="150"/>
   <g>
    <circle fill="none" stroke="black" stroke-width="52.92" stroke-linecap="round" stroke-linejoin="round" cx="55000" cy="45000" r="150"/>
    <circle fill="none" stroke="black" stroke-width="52.92" stroke-linecap="round" stroke-linejoin="round" cx="61000" cy="45000" r="150"/>
    <circle fill="none" stroke="black" stroke-width="52.92" stroke-linecap="round" stroke-linejoin="round" cx="58000" cy="42000" r="150"/>
    <circle fill="none" stroke="black" stroke-width="52.92" stroke-linecap="round" stroke-linejoin="round" cx="58000" cy="48000" r="150"/>
    <path fill="none" stroke="black" stroke-width="52.92" stroke-linecap="round" stroke-linejoin="round" d="M57646 46697l-1344 -1344c-195,-195 -195,-512 0,-707l1344 -1344c195,-195 512,-195 707,0l1344 1344c195,195 195,512 0,707l-1344 1344c-195,195 -512,195 -707,0z"/>
   </g>
   <g>
    <circle fill="none" stroke="black" stroke-width="52.92" stroke-linecap="round" stroke-linejoin="round" cx="55000" cy="32000" r="150"/>
    <circle fill="none" stroke="black" stroke-width="52.92" stroke-linecap="round" stroke-linejoin="round" cx="61000" cy="32000" r="150"/>
    <circle fill="none" stroke="black" stroke-width="52.92" stroke-linecap="round" stroke-linejoin="round" cx="58000" cy="29000" r="150"/>
    <circle fill="none" stroke="black" stroke-width="52.92" stroke-linecap="round" stroke-linejoin="round" cx="58000" cy="35000" r="150"/>
    <path fill="none" stroke="black" stroke-width="52.92" stroke-linecap="round" stroke-linejoin="round" d="M57646 33697l-1344 -1344c-195,-195 -195,-512 0,-707l1344 -1344c195,-195 512,-195 707,0l1344 1344c195,195 195,512 0,707l-1344 1344c-195,195 -512,195 -707,0z"/>
   </g>
   <circle fill="none" stroke="black" stroke-width="52.92" stroke-linecap="round" stroke-linejoin="round" cx="55000" cy="19000" r="150"/>
   <circle fill="none" stroke="black" stroke-width="52.92" stroke-linecap="round" stroke-linejoin="round" cx="61000" cy="19000" r="150"/>
   <circle fill="none" stroke="black" stroke-width="52.92" stroke-linecap="round" stroke-linejoin="round" cx="58000" cy="16000" r="150"/>
   <circle fill="none" stroke="black" stroke-width="52.92" stroke-linecap="round" stroke-linejoin="round" cx="58000" cy="22000" r="150"/>
   <path fill="none" stroke="black" stroke-width="52.92" stroke-linecap="round" stroke-linejoin="round" d="M57646 20697l-1344 -1344c-195,-195 -195,-512 0,-707l1344 -1344c195,-195 512,-195 707,0l1344 1344c195,195 195,512 0,707l-1344 1344c-195,195 -512,195 -707,0z"/>
   <g>
    <circle fill="none" stroke="black" stroke-width="52.92" stroke-linecap="round" stroke-linejoin="round" cx="55000" cy="71000" r="150"/>
    <circle fill="none" stroke="black" stroke-width="52.92" stroke-linecap="round" stroke-linejoin="round" cx="61000" cy="71000" r="150"/>
    <circle fill="none" stroke="black" stroke-width="52.92" stroke-linecap="round" stroke-linejoin="round" cx="58000" cy="68000" r="150"/>
    <circle fill="none" stroke="black" stroke-width="52.92" stroke-linecap="round" stroke-linejoin="round" cx="58000" cy="74000" r="150"/>
    <path fill="none" stroke="black" stroke-width="52.92" stroke-linecap="round" stroke-linejoin="round" d="M57646 72697l-1344 -1344c-195,-195 -195,-512 0,-707l1344 -1344c195,-195 512,-195 707,0l1344 1344c195,195 195,512 0,707l-1344 1344c-195,195 -512,195 -707,0z"/>
   </g>
   <g>
    <circle fill="none" stroke="black" stroke-width="52.92" stroke-linecap="round" stroke-linejoin="round" cx="55000" cy="58000" r="150"/>
    <circle fill="none" stroke="black" stroke-width="52.92" stroke-linecap="round" stroke-linejoin="round" cx="61000" cy="58000" r="150"/>
    <circle fill="none" stroke="black" stroke-width="52.92" stroke-linecap="round" stroke-linejoin="round" cx="58000" cy="55000" r="150"/>
    <circle fill="none" stroke="black" stroke-width="52.92" stroke-linecap="round" stroke-linejoin="round" cx="58000" cy="61000" r="150"/>
    <path fill="none" stroke="black" stroke-width="52.92" stroke-linecap="round" stroke-linejoin="round" d="M57646 59697l-1344 -1344c-195,-195 -195,-512 0,-707l1344 -1344c195,-195 512,-195 707,0l1344 1344c195,195 195,512 0,707l-1344 1344c-195,195 -512,195 -707,0z"/>
   </g>
   <circle fill="none" stroke="black" stroke-width="52.92" stroke-linecap="round" stroke-linejoin="round" cx="58000" cy="81000" r="150"/>
   <circle fill="none" stroke="black" stroke-width="52.92" stroke-linecap="round" stroke-linejoin="round" cx="58000" cy="9000" r="150"/>
   <g>
    <circle fill="none" stroke="black" stroke-width="52.92" stroke-linecap="round" stroke-linejoin="round" cx="68000" cy="45000" r="150"/>
    <circle fill="none" stroke="black" stroke-width="52.92" stroke-linecap="round" stroke-linejoin="round" cx="74000" cy="45000" r="150"/>
    <circle fill="none" stroke="black" stroke-width="52.92" stroke-linecap="round" stroke-linejoin="round" cx="71000" cy="42000" r="150"/>
    <circle fill="none" stroke="black" stroke-width="52.92" stroke-linecap="round" stroke-linejoin="round" cx="71000" cy="48000" r="150"/>
    <path fill="none" stroke="black" stroke-width="52.92" stroke-linecap="round" stroke-linejoin="round" d="M70646 46697l-1344 -1344c-195,-195 -195,-512 0,-707l1344 -1344c195,-195 512,-195 707,0l1344 1344c195,195 195,512 0,707l-1344 1344c-195,195 -512,195 -707,0z"/>
   </g>
   <g>
    <circle fill="none" stroke="black" stroke-width="52.92" stroke-linecap="round" stroke-linejoin="round" cx="68000" cy="32000" r="150"/>
    <circle fill="none" stroke="black" stroke-width="52.92" stroke-linecap="round" stroke-linejoin="round" cx="74000" cy="32000" r="150"/>
    <circle fill="none" stroke="black" stroke-width="52.92" stroke-linecap="round" stroke-linejoin="round" cx="71000" cy="29000" r="150"/>
    <circle fill="none" stroke="black" stroke-width="52.92" stroke-linecap="round" stroke-linejoin="round" cx="71000" cy="35000" r="150"/>
    <path fill="none" stroke="black" stroke-width="52.92" stroke-linecap="round" stroke-linejoin="round" d="M70646 33697l-1344 -1344c-195,-195 -195,-512 0,-707l1344 -1344c195,-195 512,-195 707,0l1344 1344c195,195 195,512 0,707l-1344 1344c-195,195 -512,195 -707,0z"/>
   </g>
   <circle fill="none" stroke="black" stroke-width="52.92" stroke-linecap="round" stroke-linejoin="round" cx="68000" cy="19000" r="150"/>
   <circle fill="none" stroke="black" stroke-width="52.92" stroke-linecap="round" stroke-linejoin="round" cx="74000" cy="19000" r="150"/>
   <circle fill="none" stroke="black" stroke-width="52.92" stroke-linecap="round" stroke-linejoin="round" cx="71000" cy="16000" r="150"/>
   <circle fill="none" stroke="black" stroke-width="52.92" stroke-linecap="round" stroke-linejoin="round" cx="71000" cy="22000" r="150"/>
   <path fill="none" stroke="black" stroke-width="52.92" stroke-linecap="round" stroke-linejoin="round" d="M70646 20697l-1344 -1344c-195,-195 -195,-512 0,-707l1344 -1344c195,-195 512,-195 707,0l1344 1344c195,195 195,512 0,707l-1344 1344c-195,195 -512,195 -707,0z"/>
   <g>
    <circle fill="none" stroke="black" stroke-width="52.92" stroke-linecap="round" stroke-linejoin="round" cx="68000" cy="71000" r="150"/>
    <circle fill="none" stroke="black" stroke-width="52.92" stroke-linecap="round" stroke-linejoin="round" cx="74000" cy="71000" r="150"/>
    <circle fill="none" stroke="black" stroke-width="52.92" stroke-linecap="round" stroke-linejoin="round" cx="71000" cy="68000" r="150"/>
    <circle fill="none" stroke="black" stroke-width="52.92" stroke-linecap="round" stroke-linejoin="round" cx="71000" cy="74000" r="150"/>
    <path fill="none" stroke="black" stroke-width="52.92" stroke-linecap="round" stroke-linejoin="round" d="M70646 72697l-1344 -1344c-195,-195 -195,-512 0,-707l1344 -1344c195,-195 512,-195 707,0l1344 1344c195,195 195,512 0,707l-1344 1344c-195,195 -512,195 -707,0z"/>
   </g>
   <g>
    <circle fill="none" stroke="black" stroke-width="52.92" stroke-linecap="round" stroke-linejoin="round" cx="68000" cy="58000" r="150"/>
    <circle fill="none" stroke="black" stroke-width="52.92" stroke-linecap="round" stroke-linejoin="round" cx="74000" cy="58000" r="150"/>
    <circle fill="none" stroke="black" stroke-width="52.92" stroke-linecap="round" stroke-linejoin="round" cx="71000" cy="55000" r="150"/>
    <circle fill="none" stroke="black" stroke-width="52.92" stroke-linecap="round" stroke-linejoin="round" cx="71000" cy="61000" r="150"/>
    <path fill="none" stroke="black" stroke-width="52.92" stroke-linecap="round" stroke-linejoin="round" d="M70646 59697l-1344 -1344c-195,-195 -195,-512 0,-707l1344 -1344c195,-195 512,-195 707,0l1344 1344c195,195 195,512 0,707l-1344 1344c-195,195 -512,195 -707,0z"/>
   </g>
   <circle fill="none" stroke="black" stroke-width="52.92" stroke-linecap="round" stroke-linejoin="round" cx="71000" cy="81000" r="150"/>
   <circle fill="none" stroke="black" stroke-width="52.92" stroke-linecap="round" stroke-linejoin="round" cx="71000" cy="9000" r="150"/>
   <circle fill="none" stroke="black" stroke-width="52.92" stroke-linecap="round" stroke-linejoin="round" cx="81000" cy="45000" r="150"/>
   <circle fill="none" stroke="black" stroke-width="52.92" stroke-linecap="round" stroke-linejoin="round" cx="84000" cy="42000" r="150"/>
   <circle fill="none" stroke="black" stroke-width="52.92" stroke-linecap="round" stroke-linejoin="round" cx="84000" cy="48000" r="150"/>
   <circle fill="none" stroke="black" stroke-width="52.92" stroke-linecap="round" stroke-linejoin="round" cx="81000" cy="32000" r="150"/>
   <circle fill="none" stroke="black" stroke-width="52.92" stroke-linecap="round" stroke-linejoin="round" cx="84000" cy="29000" r="150"/>
   <circle fill="none" stroke="black" stroke-width="52.92" stroke-linecap="round" stroke-linejoin="round" cx="84000" cy="35000" r="150"/>
   <circle fill="none" stroke="black" stroke-width="52.92" stroke-linecap="round" stroke-linejoin="round" cx="81000" cy="19000" r="150"/>
   <circle fill="none" stroke="black" stroke-width="52.92" stroke-linecap="round" stroke-linejoin="round" cx="84000" cy="16000" r="150"/>
   <circle fill="none" stroke="black" stroke-width="52.92" stroke-linecap="round" stroke-linejoin="round" cx="84000" cy="22000" r="150"/>
   <circle fill="none" stroke="black" stroke-width="52.92" stroke-linecap="round" stroke-linejoin="round" cx="81000" cy="71000" r="150"/>
   <circle fill="none" stroke="black" stroke-width="52.92" stroke-linecap="round" stroke-linejoin="round" cx="84000" cy="68000" r="150"/>
   <circle fill="none" stroke="black" stroke-width="52.92" stroke-linecap="round" stroke-linejoin="round" cx="84000" cy="74000" r="150"/>
   <circle fill="none" stroke="black" stroke-width="52.92" stroke-linecap="round" stroke-linejoin="round" cx="81000" cy="58000" r="150"/>
   <circle fill="none" stroke="black" stroke-width="52.92" stroke-linecap="round" stroke-linejoin="round" cx="84000" cy="55000" r="150"/>
   <circle fill="none" stroke="black" stroke-width="52.92" stroke-linecap="round" stroke-linejoin="round" cx="84000" cy="61000" r="150"/>
   <circle fill="none" stroke="black" stroke-width="52.92" stroke-linecap="round" stroke-linejoin="round" cx="84000" cy="81000" r="150"/>
   <circle fill="none" stroke="black" stroke-width="52.92" stroke-linecap="round" stroke-linejoin="round" cx="84000" cy="9000" r="150"/>
   <circle fill="none" stroke="black" stroke-width="52.92" stroke-linecap="round" stroke-linejoin="round" cx="9000" cy="45000" r="150"/>
   <circle fill="none" stroke="black" stroke-width="52.92" stroke-linecap="round" stroke-linejoin="round" cx="6000" cy="42000" r="150"/>
   <circle fill="none" stroke="black" stroke-width="52.92" stroke-linecap="round" stroke-linejoin="round" cx="6000" cy="48000" r="150"/>
   <circle fill="none" stroke="black" stroke-width="52.92" stroke-linecap="round" stroke-linejoin="round" cx="9000" cy="32000" r="150"/>
   <circle fill="none" stroke="black" stroke-width="52.92" stroke-linecap="round" stroke-linejoin="round" cx="6000" cy="29000" r="150"/>
   <circle fill="none" stroke="black" stroke-width="52.92" stroke-linecap="round" stroke-linejoin="round" cx="6000" cy="35000" r="150"/>
   <circle fill="none" stroke="black" stroke-width="52.92" stroke-linecap="round" stroke-linejoin="round" cx="9000" cy="19000" r="150"/>
   <circle fill="none" stroke="black" stroke-width="52.92" stroke-linecap="round" stroke-linejoin="round" cx="6000" cy="16000" r="150"/>
   <circle fill="none" stroke="black" stroke-width="52.92" stroke-linecap="round" stroke-linejoin="round" cx="6000" cy="22000" r="150"/>
   <circle fill="none" stroke="black" stroke-width="52.92" stroke-linecap="round" stroke-linejoin="round" cx="9000" cy="71000" r="150"/>
   <circle fill="none" stroke="black" stroke-width="52.92" stroke-linecap="round" stroke-linejoin="round" cx="6000" cy="68000" r="150"/>
   <circle fill="none" stroke="black" stroke-width="52.92" stroke-linecap="round" stroke-linejoin="round" cx="6000" cy="74000" r="150"/>
   <circle fill="none" stroke="black" stroke-width="52.92" stroke-linecap="round" stroke-linejoin="round" cx="9000" cy="58000" r="150"/>
   <circle fill="none" stroke="black" stroke-width="52.92" stroke-linecap="round" stroke-linejoin="round" cx="6000" cy="55000" r="150"/>
   <circle fill="none" stroke="black" stroke-width="52.92" stroke-linecap="round" stroke-linejoin="round" cx="6000" cy="61000" r="150"/>
   <circle fill="none" stroke="black" stroke-width="52.92" stroke-linecap="round" stroke-linejoin="round" cx="6000" cy="81000" r="150"/>
   <circle fill="none" stroke="black" stroke-width="52.92" stroke-linecap="round" stroke-linejoin="round" cx="6000" cy="9000" r="150"/>
   <circle fill="none" stroke="black" stroke-width="52.92" stroke-linecap="round" stroke-linejoin="round" cx="42000" cy="6000" r="150"/>
   <circle fill="none" stroke="black" stroke-width="52.92" stroke-linecap="round" stroke-linejoin="round" cx="48000" cy="6000" r="150"/>
   <circle fill="none" stroke="black" stroke-width="52.92" stroke-linecap="round" stroke-linejoin="round" cx="29000" cy="6000" r="150"/>
   <circle fill="none" stroke="black" stroke-width="52.92" stroke-linecap="round" stroke-linejoin="round" cx="35000" cy="6000" r="150"/>
   <circle fill="none" stroke="black" stroke-width="52.92" stroke-linecap="round" stroke-linejoin="round" cx="16000" cy="6000" r="150"/>
   <circle fill="none" stroke="black" stroke-width="52.92" stroke-linecap="round" stroke-linejoin="round" cx="22000" cy="6000" r="150"/>
   <circle fill="none" stroke="black" stroke-width="52.92" stroke-linecap="round" stroke-linejoin="round" cx="55000" cy="6000" r="150"/>
   <circle fill="none" stroke="black" stroke-width="52.92" stroke-linecap="round" stroke-linejoin="round" cx="61000" cy="6000" r="150"/>
   <circle fill="none" stroke="black" stroke-width="52.92" stroke-linecap="round" stroke-linejoin="round" cx="68000" cy="6000" r="150"/>
   <circle fill="none" stroke="black" stroke-width="52.92" stroke-linecap="round" stroke-linejoin="round" cx="74000" cy="6000" r="150"/>
   <circle fill="none" stroke="black" stroke-width="52.92" stroke-linecap="round" stroke-linejoin="round" cx="81000" cy="6000" r="150"/>
   <circle fill="none" stroke="black" stroke-width="52.92" stroke-linecap="round" stroke-linejoin="round" cx="9000" cy="6000" r="150"/>
   <circle fill="none" stroke="black" stroke-width="52.92" stroke-linecap="round" stroke-linejoin="round" cx="42000" cy="84000" r="150"/>
   <circle fill="none" stroke="black" stroke-width="52.92" stroke-linecap="round" stroke-linejoin="round" cx="48000" cy="84000" r="150"/>
   <circle fill="none" stroke="black" stroke-width="52.92" stroke-linecap="round" stroke-linejoin="round" cx="29000" cy="84000" r="150"/>
   <circle fill="none" stroke="black" stroke-width="52.92" stroke-linecap="round" stroke-linejoin="round" cx="35000" cy="84000" r="150"/>
   <circle fill="none" stroke="black" stroke-width="52.92" stroke-linecap="round" stroke-linejoin="round" cx="16000" cy="84000" r="150"/>
   <circle fill="none" stroke="black" stroke-width="52.92" stroke-linecap="round" stroke-linejoin="round" cx="22000" cy="84000" r="150"/>
   <circle fill="none" stroke="black" stroke-width="52.92" stroke-linecap="round" stroke-linejoin="round" cx="55000" cy="84000" r="150"/>
   <circle fill="none" stroke="black" stroke-width="52.92" stroke-linecap="round" stroke-linejoin="round" cx="61000" cy="84000" r="150"/>
   <circle fill="none" stroke="black" stroke-width="52.92" stroke-linecap="round" stroke-linejoin="round" cx="68000" cy="84000" r="150"/>
   <circle fill="none" stroke="black" stroke-width="52.92" stroke-linecap="round" stroke-linejoin="round" cx="74000" cy="84000" r="150"/>
   <circle fill="none" stroke="black" stroke-width="52.92" stroke-linecap="round" stroke-linejoin="round" cx="81000" cy="84000" r="150"/>
   <circle fill="none" stroke="black" stroke-width="52.92" stroke-linecap="round" stroke-linejoin="round" cx="9000" cy="84000" r="150"/>
  </g>
 </g>
</svg>
