<?xml version="1.0" standalone="no"?>
<!DOCTYPE svg PUBLIC "-//W3C//DTD SVG 1.1//EN" "http://www.w3.org/Graphics/SVG/1.1/DTD/svg11.dtd">
<svg width="74mm" height="74mm" viewBox="-37 -37 74 74" xmlns="http://www.w3.org/2000/svg" version="1.1">
<title>OpenSCAD Model</title>
<path d="
M 5.84929,32.4816 L 10.3913,25.3245 L 15.7946,18.7931 L 21.9739,12.9903 L 28.8317,8.00786 L 36.2599,3.92416
 L 37,3.63113 L 37,-3.63113 L 36.2599,-3.92416 L 28.8317,-8.00786 L 21.9739,-12.9903 L 15.7946,-18.7931
 L 10.3913,-25.3245 L 5.84929,-32.4816 L 3.72775,-36.9901 L -3.72775,-36.9901 L -5.84929,-32.4816 L -10.3913,-25.3245
 L -15.7946,-18.7931 L -21.9739,-12.9903 L -28.8317,-8.00786 L -36.2599,-3.92416 L -37,-3.63113 L -37,3.63113
 L -36.2599,3.92416 L -28.8317,8.00786 L -21.9739,12.9903 L -15.7946,18.7931 L -10.3913,25.3245 L -5.84929,32.4816
 L -3.72775,36.9901 L 3.72775,36.9901 z
M -0.0941772,-28.503 L -0.281067,-28.5266 L -0.463516,-28.5734 L -0.638657,-28.6427 L -0.803726,-28.7335 L -0.956131,-28.8442
 L -1.09344,-28.9732 L -1.21352,-29.1183 L -1.31445,-29.2774 L -1.39465,-29.4478 L -1.45287,-29.627 L -1.48816,-29.812
 L -1.5,-30 L -1.48816,-30.188 L -1.45287,-30.373 L -1.39465,-30.5522 L -1.31445,-30.7226 L -1.21352,-30.8817
 L -1.09344,-31.0268 L -0.956131,-31.1558 L -0.803726,-31.2665 L -0.638657,-31.3572 L -0.463516,-31.4266 L -0.281067,-31.4734
 L -0.0941772,-31.497 L 0.0941772,-31.497 L 0.281067,-31.4734 L 0.463516,-31.4266 L 0.638657,-31.3572 L 0.803726,-31.2665
 L 0.956131,-31.1558 L 1.09344,-31.0268 L 1.21352,-30.8817 L 1.31445,-30.7226 L 1.39465,-30.5522 L 1.45287,-30.373
 L 1.48816,-30.188 L 1.5,-30 L 1.48816,-29.812 L 1.45287,-29.627 L 1.39465,-29.4478 L 1.31445,-29.2774
 L 1.21352,-29.1183 L 1.09344,-28.9732 L 0.956131,-28.8442 L 0.803726,-28.7335 L 0.638657,-28.6427 L 0.463516,-28.5734
 L 0.281067,-28.5266 L 0.0941772,-28.503 z
M -30.0942,1.49704 L -30.2811,1.47342 L -30.4635,1.42657 L -30.6387,1.35724 L -30.8037,1.26648 L -30.9561,1.15576
 L -31.0934,1.02681 L -31.2135,0.881668 L -31.3145,0.722626 L -31.3947,0.552185 L -31.4529,0.373032 L -31.4882,0.187988
 L -31.5,-0 L -31.4882,-0.187988 L -31.4529,-0.373032 L -31.3947,-0.552185 L -31.3145,-0.722626 L -31.2135,-0.881668
 L -31.0934,-1.02681 L -30.9561,-1.15576 L -30.8037,-1.26648 L -30.6387,-1.35724 L -30.4635,-1.42657 L -30.2811,-1.47342
 L -30.0942,-1.49704 L -29.9058,-1.49704 L -29.7189,-1.47342 L -29.5365,-1.42657 L -29.3613,-1.35724 L -29.1963,-1.26648
 L -29.0439,-1.15576 L -28.9065,-1.02681 L -28.7865,-0.881668 L -28.6855,-0.722626 L -28.6053,-0.552185 L -28.5471,-0.373032
 L -28.5118,-0.187988 L -28.5,-0 L -28.5118,0.187988 L -28.5471,0.373032 L -28.6053,0.552185 L -28.6855,0.722626
 L -28.7865,0.881668 L -28.9065,1.02681 L -29.0439,1.15576 L -29.1963,1.26648 L -29.3613,1.35724 L -29.5365,1.42657
 L -29.7189,1.47342 L -29.9058,1.49704 z
M 29.9058,1.49704 L 29.7189,1.47342 L 29.5365,1.42657 L 29.3613,1.35724 L 29.1963,1.26648 L 29.0439,1.15576
 L 28.9065,1.02681 L 28.7865,0.881668 L 28.6855,0.722626 L 28.6053,0.552185 L 28.5471,0.373032 L 28.5118,0.187988
 L 28.5,-0 L 28.5118,-0.187988 L 28.5471,-0.373032 L 28.6053,-0.552185 L 28.6855,-0.722626 L 28.7865,-0.881668
 L 28.9065,-1.02681 L 29.0439,-1.15576 L 29.1963,-1.26648 L 29.3613,-1.35724 L 29.5365,-1.42657 L 29.7189,-1.47342
 L 29.9058,-1.49704 L 30.0942,-1.49704 L 30.2811,-1.47342 L 30.4635,-1.42657 L 30.6387,-1.35724 L 30.8037,-1.26648
 L 30.9561,-1.15576 L 31.0934,-1.02681 L 31.2135,-0.881668 L 31.3145,-0.722626 L 31.3947,-0.552185 L 31.4529,-0.373032
 L 31.4882,-0.187988 L 31.5,-0 L 31.4882,0.187988 L 31.4529,0.373032 L 31.3947,0.552185 L 31.3145,0.722626
 L 31.2135,0.881668 L 31.0934,1.02681 L 30.9561,1.15576 L 30.8037,1.26648 L 30.6387,1.35724 L 30.4635,1.42657
 L 30.2811,1.47342 L 30.0942,1.49704 z
M -0.0941772,31.497 L -0.281067,31.4734 L -0.463516,31.4266 L -0.638657,31.3572 L -0.803726,31.2665 L -0.956131,31.1558
 L -1.09344,31.0268 L -1.21352,30.8817 L -1.31445,30.7226 L -1.39465,30.5522 L -1.45287,30.373 L -1.48816,30.188
 L -1.5,30 L -1.48816,29.812 L -1.45287,29.627 L -1.39465,29.4478 L -1.31445,29.2774 L -1.21352,29.1183
 L -1.09344,28.9732 L -0.956131,28.8442 L -0.803726,28.7335 L -0.638657,28.6427 L -0.463516,28.5734 L -0.281067,28.5266
 L -0.0941772,28.503 L 0.0941772,28.503 L 0.281067,28.5266 L 0.463516,28.5734 L 0.638657,28.6427 L 0.803726,28.7335
 L 0.956131,28.8442 L 1.09344,28.9732 L 1.21352,29.1183 L 1.31445,29.2774 L 1.39465,29.4478 L 1.45287,29.627
 L 1.48816,29.812 L 1.5,30 L 1.48816,30.188 L 1.45287,30.373 L 1.39465,30.5522 L 1.31445,30.7226
 L 1.21352,30.8817 L 1.09344,31.0268 L 0.956131,31.1558 L 0.803726,31.2665 L 0.638657,31.3572 L 0.463516,31.4266
 L 0.281067,31.4734 L 0.0941772,31.497 z
" stroke="black" fill="lightgray" stroke-width="0.5"/>
</svg>
