  0
SECTION
  2
BLOCKS
  0
ENDSEC
  0
SECTION
  2
ENTITIES
  0
LINE
  8
0
 10
0.445023
 20
45.6671
 11
0.733902
 21
45.7412
  0
LINE
  8
0
 10
0.733902
 20
45.7412
 11
1.01122
 21
45.851
  0
LINE
  8
0
 10
1.01122
 20
45.851
 11
1.27258
 21
45.9947
  0
LINE
  8
0
 10
1.27258
 20
45.9947
 11
1.51387
 21
46.17
  0
LINE
  8
0
 10
1.51387
 20
46.17
 11
1.73129
 21
46.3742
  0
LINE
  8
0
 10
1.73129
 20
46.3742
 11
1.9214
 21
46.604
  0
LINE
  8
0
 10
1.9214
 20
46.604
 11
2.08122
 21
46.8559
  0
LINE
  8
0
 10
2.08122
 20
46.8559
 11
2.20821
 21
47.1257
  0
LINE
  8
0
 10
2.20821
 20
47.1257
 11
2.30038
 21
47.4094
  0
LINE
  8
0
 10
2.30038
 20
47.4094
 11
2.35626
 21
47.7023
  0
LINE
  8
0
 10
2.35626
 20
47.7023
 11
2.375
 21
48
  0
LINE
  8
0
 10
2.375
 20
48
 11
2.35626
 21
48.2977
  0
LINE
  8
0
 10
2.35626
 20
48.2977
 11
2.30038
 21
48.5906
  0
LINE
  8
0
 10
2.30038
 20
48.5906
 11
2.20821
 21
48.8743
  0
LINE
  8
0
 10
2.20821
 20
48.8743
 11
2.08122
 21
49.1441
  0
LINE
  8
0
 10
2.08122
 20
49.1441
 11
1.9214
 21
49.396
  0
LINE
  8
0
 10
1.9214
 20
49.396
 11
1.73129
 21
49.6258
  0
LINE
  8
0
 10
1.73129
 20
49.6258
 11
1.51387
 21
49.83
  0
LINE
  8
0
 10
1.51387
 20
49.83
 11
1.27258
 21
50.0053
  0
LINE
  8
0
 10
1.27258
 20
50.0053
 11
1.01122
 21
50.149
  0
LINE
  8
0
 10
1.01122
 20
50.149
 11
0.733902
 21
50.2588
  0
LINE
  8
0
 10
0.733902
 20
50.2588
 11
0.445023
 21
50.3329
  0
LINE
  8
0
 10
0.445023
 20
50.3329
 11
0.149124
 21
50.3703
  0
LINE
  8
0
 10
0.149124
 20
50.3703
 11
-0.149124
 21
50.3703
  0
LINE
  8
0
 10
-0.149124
 20
50.3703
 11
-0.445023
 21
50.3329
  0
LINE
  8
0
 10
-0.445023
 20
50.3329
 11
-0.733902
 21
50.2588
  0
LINE
  8
0
 10
-0.733902
 20
50.2588
 11
-1.01122
 21
50.149
  0
LINE
  8
0
 10
-1.01122
 20
50.149
 11
-1.27258
 21
50.0053
  0
LINE
  8
0
 10
-1.27258
 20
50.0053
 11
-1.51387
 21
49.83
  0
LINE
  8
0
 10
-1.51387
 20
49.83
 11
-1.73129
 21
49.6258
  0
LINE
  8
0
 10
-1.73129
 20
49.6258
 11
-1.9214
 21
49.396
  0
LINE
  8
0
 10
-1.9214
 20
49.396
 11
-2.08122
 21
49.1441
  0
LINE
  8
0
 10
-2.08122
 20
49.1441
 11
-2.20821
 21
48.8743
  0
LINE
  8
0
 10
-2.20821
 20
48.8743
 11
-2.30038
 21
48.5906
  0
LINE
  8
0
 10
-2.30038
 20
48.5906
 11
-2.35626
 21
48.2977
  0
LINE
  8
0
 10
-2.35626
 20
48.2977
 11
-2.375
 21
48
  0
LINE
  8
0
 10
-2.375
 20
48
 11
-2.35626
 21
47.7023
  0
LINE
  8
0
 10
-2.35626
 20
47.7023
 11
-2.30038
 21
47.4094
  0
LINE
  8
0
 10
-2.30038
 20
47.4094
 11
-2.20821
 21
47.1257
  0
LINE
  8
0
 10
-2.20821
 20
47.1257
 11
-2.08122
 21
46.8559
  0
LINE
  8
0
 10
-2.08122
 20
46.8559
 11
-1.9214
 21
46.604
  0
LINE
  8
0
 10
-1.9214
 20
46.604
 11
-1.73129
 21
46.3742
  0
LINE
  8
0
 10
-1.73129
 20
46.3742
 11
-1.51387
 21
46.17
  0
LINE
  8
0
 10
-1.51387
 20
46.17
 11
-1.27258
 21
45.9947
  0
LINE
  8
0
 10
-1.27258
 20
45.9947
 11
-1.01122
 21
45.851
  0
LINE
  8
0
 10
-1.01122
 20
45.851
 11
-0.733902
 21
45.7412
  0
LINE
  8
0
 10
-0.733902
 20
45.7412
 11
-0.445023
 21
45.6671
  0
LINE
  8
0
 10
-0.445023
 20
45.6671
 11
-0.149124
 21
45.6297
  0
LINE
  8
0
 10
-0.149124
 20
45.6297
 11
0.149124
 21
45.6297
  0
LINE
  8
0
 10
0.149124
 20
45.6297
 11
0.445023
 21
45.6671
  0
LINE
  8
0
 10
-0.113022
 20
46.2036
 11
-0.33728
 21
46.2319
  0
LINE
  8
0
 10
-0.33728
 20
46.2319
 11
-0.556229
 21
46.2881
  0
LINE
  8
0
 10
-0.556229
 20
46.2881
 11
-0.766388
 21
46.3713
  0
LINE
  8
0
 10
-0.766388
 20
46.3713
 11
-0.964478
 21
46.4802
  0
LINE
  8
0
 10
-0.964478
 20
46.4802
 11
-1.14735
 21
46.6131
  0
LINE
  8
0
 10
-1.14735
 20
46.6131
 11
-1.31213
 21
46.7678
  0
LINE
  8
0
 10
-1.31213
 20
46.7678
 11
-1.45622
 21
46.942
  0
LINE
  8
0
 10
-1.45622
 20
46.942
 11
-1.57735
 21
47.1329
  0
LINE
  8
0
 10
-1.57735
 20
47.1329
 11
-1.67358
 21
47.3374
  0
LINE
  8
0
 10
-1.67358
 20
47.3374
 11
-1.74344
 21
47.5524
  0
LINE
  8
0
 10
-1.74344
 20
47.5524
 11
-1.7858
 21
47.7744
  0
LINE
  8
0
 10
-1.7858
 20
47.7744
 11
-1.79999
 21
48
  0
LINE
  8
0
 10
-1.79999
 20
48
 11
-1.7858
 21
48.2256
  0
LINE
  8
0
 10
-1.7858
 20
48.2256
 11
-1.74344
 21
48.4476
  0
LINE
  8
0
 10
-1.74344
 20
48.4476
 11
-1.67358
 21
48.6626
  0
LINE
  8
0
 10
-1.67358
 20
48.6626
 11
-1.57735
 21
48.8671
  0
LINE
  8
0
 10
-1.57735
 20
48.8671
 11
-1.45622
 21
49.058
  0
LINE
  8
0
 10
-1.45622
 20
49.058
 11
-1.31213
 21
49.2322
  0
LINE
  8
0
 10
-1.31213
 20
49.2322
 11
-1.14735
 21
49.3869
  0
LINE
  8
0
 10
-1.14735
 20
49.3869
 11
-0.964478
 21
49.5198
  0
LINE
  8
0
 10
-0.964478
 20
49.5198
 11
-0.766388
 21
49.6287
  0
LINE
  8
0
 10
-0.766388
 20
49.6287
 11
-0.556229
 21
49.7119
  0
LINE
  8
0
 10
-0.556229
 20
49.7119
 11
-0.33728
 21
49.7681
  0
LINE
  8
0
 10
-0.33728
 20
49.7681
 11
-0.113022
 21
49.7964
  0
LINE
  8
0
 10
-0.113022
 20
49.7964
 11
0.113022
 21
49.7964
  0
LINE
  8
0
 10
0.113022
 20
49.7964
 11
0.33728
 21
49.7681
  0
LINE
  8
0
 10
0.33728
 20
49.7681
 11
0.556229
 21
49.7119
  0
LINE
  8
0
 10
0.556229
 20
49.7119
 11
0.766388
 21
49.6287
  0
LINE
  8
0
 10
0.766388
 20
49.6287
 11
0.964478
 21
49.5198
  0
LINE
  8
0
 10
0.964478
 20
49.5198
 11
1.14735
 21
49.3869
  0
LINE
  8
0
 10
1.14735
 20
49.3869
 11
1.31213
 21
49.2322
  0
LINE
  8
0
 10
1.31213
 20
49.2322
 11
1.45622
 21
49.058
  0
LINE
  8
0
 10
1.45622
 20
49.058
 11
1.57735
 21
48.8671
  0
LINE
  8
0
 10
1.57735
 20
48.8671
 11
1.67358
 21
48.6626
  0
LINE
  8
0
 10
1.67358
 20
48.6626
 11
1.74344
 21
48.4476
  0
LINE
  8
0
 10
1.74344
 20
48.4476
 11
1.7858
 21
48.2256
  0
LINE
  8
0
 10
1.7858
 20
48.2256
 11
1.79999
 21
48
  0
LINE
  8
0
 10
1.79999
 20
48
 11
1.7858
 21
47.7744
  0
LINE
  8
0
 10
1.7858
 20
47.7744
 11
1.74344
 21
47.5524
  0
LINE
  8
0
 10
1.74344
 20
47.5524
 11
1.67358
 21
47.3374
  0
LINE
  8
0
 10
1.67358
 20
47.3374
 11
1.57735
 21
47.1329
  0
LINE
  8
0
 10
1.57735
 20
47.1329
 11
1.45622
 21
46.942
  0
LINE
  8
0
 10
1.45622
 20
46.942
 11
1.31213
 21
46.7678
  0
LINE
  8
0
 10
1.31213
 20
46.7678
 11
1.14735
 21
46.6131
  0
LINE
  8
0
 10
1.14735
 20
46.6131
 11
0.964478
 21
46.4802
  0
LINE
  8
0
 10
0.964478
 20
46.4802
 11
0.766388
 21
46.3713
  0
LINE
  8
0
 10
0.766388
 20
46.3713
 11
0.556229
 21
46.2881
  0
LINE
  8
0
 10
0.556229
 20
46.2881
 11
0.33728
 21
46.2319
  0
LINE
  8
0
 10
0.33728
 20
46.2319
 11
0.113022
 21
46.2036
  0
LINE
  8
0
 10
0.113022
 20
46.2036
 11
-0.113022
 21
46.2036
  0
LINE
  8
0
 10
0.445023
 20
21.6671
 11
0.733902
 21
21.7412
  0
LINE
  8
0
 10
0.733902
 20
21.7412
 11
1.01122
 21
21.851
  0
LINE
  8
0
 10
1.01122
 20
21.851
 11
1.27258
 21
21.9947
  0
LINE
  8
0
 10
1.27258
 20
21.9947
 11
1.51387
 21
22.17
  0
LINE
  8
0
 10
1.51387
 20
22.17
 11
1.73129
 21
22.3742
  0
LINE
  8
0
 10
1.73129
 20
22.3742
 11
1.9214
 21
22.604
  0
LINE
  8
0
 10
1.9214
 20
22.604
 11
2.08122
 21
22.8559
  0
LINE
  8
0
 10
2.08122
 20
22.8559
 11
2.20821
 21
23.1257
  0
LINE
  8
0
 10
2.20821
 20
23.1257
 11
2.30038
 21
23.4094
  0
LINE
  8
0
 10
2.30038
 20
23.4094
 11
2.35626
 21
23.7023
  0
LINE
  8
0
 10
2.35626
 20
23.7023
 11
2.375
 21
24
  0
LINE
  8
0
 10
2.375
 20
24
 11
2.35626
 21
24.2977
  0
LINE
  8
0
 10
2.35626
 20
24.2977
 11
2.30038
 21
24.5906
  0
LINE
  8
0
 10
2.30038
 20
24.5906
 11
2.20821
 21
24.8743
  0
LINE
  8
0
 10
2.20821
 20
24.8743
 11
2.08122
 21
25.1441
  0
LINE
  8
0
 10
2.08122
 20
25.1441
 11
1.9214
 21
25.396
  0
LINE
  8
0
 10
1.9214
 20
25.396
 11
1.73129
 21
25.6258
  0
LINE
  8
0
 10
1.73129
 20
25.6258
 11
1.51387
 21
25.83
  0
LINE
  8
0
 10
1.51387
 20
25.83
 11
1.27258
 21
26.0053
  0
LINE
  8
0
 10
1.27258
 20
26.0053
 11
1.01122
 21
26.149
  0
LINE
  8
0
 10
1.01122
 20
26.149
 11
0.733902
 21
26.2588
  0
LINE
  8
0
 10
0.733902
 20
26.2588
 11
0.445023
 21
26.3329
  0
LINE
  8
0
 10
0.445023
 20
26.3329
 11
0.149124
 21
26.3703
  0
LINE
  8
0
 10
0.149124
 20
26.3703
 11
-0.149124
 21
26.3703
  0
LINE
  8
0
 10
-0.149124
 20
26.3703
 11
-0.445023
 21
26.3329
  0
LINE
  8
0
 10
-0.445023
 20
26.3329
 11
-0.733902
 21
26.2588
  0
LINE
  8
0
 10
-0.733902
 20
26.2588
 11
-1.01122
 21
26.149
  0
LINE
  8
0
 10
-1.01122
 20
26.149
 11
-1.27258
 21
26.0053
  0
LINE
  8
0
 10
-1.27258
 20
26.0053
 11
-1.51387
 21
25.83
  0
LINE
  8
0
 10
-1.51387
 20
25.83
 11
-1.73129
 21
25.6258
  0
LINE
  8
0
 10
-1.73129
 20
25.6258
 11
-1.9214
 21
25.396
  0
LINE
  8
0
 10
-1.9214
 20
25.396
 11
-2.08122
 21
25.1441
  0
LINE
  8
0
 10
-2.08122
 20
25.1441
 11
-2.20821
 21
24.8743
  0
LINE
  8
0
 10
-2.20821
 20
24.8743
 11
-2.30038
 21
24.5906
  0
LINE
  8
0
 10
-2.30038
 20
24.5906
 11
-2.35626
 21
24.2977
  0
LINE
  8
0
 10
-2.35626
 20
24.2977
 11
-2.375
 21
24
  0
LINE
  8
0
 10
-2.375
 20
24
 11
-2.35626
 21
23.7023
  0
LINE
  8
0
 10
-2.35626
 20
23.7023
 11
-2.30038
 21
23.4094
  0
LINE
  8
0
 10
-2.30038
 20
23.4094
 11
-2.20821
 21
23.1257
  0
LINE
  8
0
 10
-2.20821
 20
23.1257
 11
-2.08122
 21
22.8559
  0
LINE
  8
0
 10
-2.08122
 20
22.8559
 11
-1.9214
 21
22.604
  0
LINE
  8
0
 10
-1.9214
 20
22.604
 11
-1.73129
 21
22.3742
  0
LINE
  8
0
 10
-1.73129
 20
22.3742
 11
-1.51387
 21
22.17
  0
LINE
  8
0
 10
-1.51387
 20
22.17
 11
-1.27258
 21
21.9947
  0
LINE
  8
0
 10
-1.27258
 20
21.9947
 11
-1.01122
 21
21.851
  0
LINE
  8
0
 10
-1.01122
 20
21.851
 11
-0.733902
 21
21.7412
  0
LINE
  8
0
 10
-0.733902
 20
21.7412
 11
-0.445023
 21
21.6671
  0
LINE
  8
0
 10
-0.445023
 20
21.6671
 11
-0.149124
 21
21.6297
  0
LINE
  8
0
 10
-0.149124
 20
21.6297
 11
0.149124
 21
21.6297
  0
LINE
  8
0
 10
0.149124
 20
21.6297
 11
0.445023
 21
21.6671
  0
LINE
  8
0
 10
-0.113022
 20
22.2036
 11
-0.33728
 21
22.2319
  0
LINE
  8
0
 10
-0.33728
 20
22.2319
 11
-0.556229
 21
22.2881
  0
LINE
  8
0
 10
-0.556229
 20
22.2881
 11
-0.766388
 21
22.3713
  0
LINE
  8
0
 10
-0.766388
 20
22.3713
 11
-0.964478
 21
22.4802
  0
LINE
  8
0
 10
-0.964478
 20
22.4802
 11
-1.14735
 21
22.6131
  0
LINE
  8
0
 10
-1.14735
 20
22.6131
 11
-1.31213
 21
22.7678
  0
LINE
  8
0
 10
-1.31213
 20
22.7678
 11
-1.45622
 21
22.942
  0
LINE
  8
0
 10
-1.45622
 20
22.942
 11
-1.57735
 21
23.1329
  0
LINE
  8
0
 10
-1.57735
 20
23.1329
 11
-1.67358
 21
23.3374
  0
LINE
  8
0
 10
-1.67358
 20
23.3374
 11
-1.74344
 21
23.5524
  0
LINE
  8
0
 10
-1.74344
 20
23.5524
 11
-1.7858
 21
23.7744
  0
LINE
  8
0
 10
-1.7858
 20
23.7744
 11
-1.79999
 21
24
  0
LINE
  8
0
 10
-1.79999
 20
24
 11
-1.7858
 21
24.2256
  0
LINE
  8
0
 10
-1.7858
 20
24.2256
 11
-1.74344
 21
24.4476
  0
LINE
  8
0
 10
-1.74344
 20
24.4476
 11
-1.67358
 21
24.6626
  0
LINE
  8
0
 10
-1.67358
 20
24.6626
 11
-1.57735
 21
24.8671
  0
LINE
  8
0
 10
-1.57735
 20
24.8671
 11
-1.45622
 21
25.058
  0
LINE
  8
0
 10
-1.45622
 20
25.058
 11
-1.31213
 21
25.2322
  0
LINE
  8
0
 10
-1.31213
 20
25.2322
 11
-1.14735
 21
25.3869
  0
LINE
  8
0
 10
-1.14735
 20
25.3869
 11
-0.964478
 21
25.5198
  0
LINE
  8
0
 10
-0.964478
 20
25.5198
 11
-0.766388
 21
25.6287
  0
LINE
  8
0
 10
-0.766388
 20
25.6287
 11
-0.556229
 21
25.7119
  0
LINE
  8
0
 10
-0.556229
 20
25.7119
 11
-0.33728
 21
25.7681
  0
LINE
  8
0
 10
-0.33728
 20
25.7681
 11
-0.113022
 21
25.7964
  0
LINE
  8
0
 10
-0.113022
 20
25.7964
 11
0.113022
 21
25.7964
  0
LINE
  8
0
 10
0.113022
 20
25.7964
 11
0.33728
 21
25.7681
  0
LINE
  8
0
 10
0.33728
 20
25.7681
 11
0.556229
 21
25.7119
  0
LINE
  8
0
 10
0.556229
 20
25.7119
 11
0.766388
 21
25.6287
  0
LINE
  8
0
 10
0.766388
 20
25.6287
 11
0.964478
 21
25.5198
  0
LINE
  8
0
 10
0.964478
 20
25.5198
 11
1.14735
 21
25.3869
  0
LINE
  8
0
 10
1.14735
 20
25.3869
 11
1.31213
 21
25.2322
  0
LINE
  8
0
 10
1.31213
 20
25.2322
 11
1.45622
 21
25.058
  0
LINE
  8
0
 10
1.45622
 20
25.058
 11
1.57735
 21
24.8671
  0
LINE
  8
0
 10
1.57735
 20
24.8671
 11
1.67358
 21
24.6626
  0
LINE
  8
0
 10
1.67358
 20
24.6626
 11
1.74344
 21
24.4476
  0
LINE
  8
0
 10
1.74344
 20
24.4476
 11
1.7858
 21
24.2256
  0
LINE
  8
0
 10
1.7858
 20
24.2256
 11
1.79999
 21
24
  0
LINE
  8
0
 10
1.79999
 20
24
 11
1.7858
 21
23.7744
  0
LINE
  8
0
 10
1.7858
 20
23.7744
 11
1.74344
 21
23.5524
  0
LINE
  8
0
 10
1.74344
 20
23.5524
 11
1.67358
 21
23.3374
  0
LINE
  8
0
 10
1.67358
 20
23.3374
 11
1.57735
 21
23.1329
  0
LINE
  8
0
 10
1.57735
 20
23.1329
 11
1.45622
 21
22.942
  0
LINE
  8
0
 10
1.45622
 20
22.942
 11
1.31213
 21
22.7678
  0
LINE
  8
0
 10
1.31213
 20
22.7678
 11
1.14735
 21
22.6131
  0
LINE
  8
0
 10
1.14735
 20
22.6131
 11
0.964478
 21
22.4802
  0
LINE
  8
0
 10
0.964478
 20
22.4802
 11
0.766388
 21
22.3713
  0
LINE
  8
0
 10
0.766388
 20
22.3713
 11
0.556229
 21
22.2881
  0
LINE
  8
0
 10
0.556229
 20
22.2881
 11
0.33728
 21
22.2319
  0
LINE
  8
0
 10
0.33728
 20
22.2319
 11
0.113022
 21
22.2036
  0
LINE
  8
0
 10
0.113022
 20
22.2036
 11
-0.113022
 21
22.2036
  0
ENDSEC
  0
SECTION
  2
OBJECTS
  0
DICTIONARY
  0
ENDSEC
  0
EOF
