  0
SECTION
  2
BLOCKS
  0
ENDSEC
  0
SECTION
  2
ENTITIES
  0
LINE
  8
0
 10
5.84929
 20
-32.4816
 11
10.3913
 21
-25.3245
  0
LINE
  8
0
 10
10.3913
 20
-25.3245
 11
15.7946
 21
-18.7931
  0
LINE
  8
0
 10
15.7946
 20
-18.7931
 11
21.9739
 21
-12.9903
  0
LINE
  8
0
 10
21.9739
 20
-12.9903
 11
28.8317
 21
-8.00786
  0
LINE
  8
0
 10
28.8317
 20
-8.00786
 11
36.2599
 21
-3.92416
  0
LINE
  8
0
 10
36.2599
 20
-3.92416
 11
37
 21
-3.63113
  0
LINE
  8
0
 10
37
 20
-3.63113
 11
37
 21
3.63113
  0
LINE
  8
0
 10
37
 20
3.63113
 11
36.2599
 21
3.92416
  0
LINE
  8
0
 10
36.2599
 20
3.92416
 11
34.303
 21
5
  0
LINE
  8
0
 10
34.303
 20
5
 11
-34.303
 21
5
  0
LINE
  8
0
 10
-34.303
 20
5
 11
-36.2599
 21
3.92416
  0
LINE
  8
0
 10
-36.2599
 20
3.92416
 11
-37
 21
3.63113
  0
LINE
  8
0
 10
-37
 20
3.63113
 11
-37
 21
-3.63113
  0
LINE
  8
0
 10
-37
 20
-3.63113
 11
-36.2599
 21
-3.92416
  0
LINE
  8
0
 10
-36.2599
 20
-3.92416
 11
-28.8317
 21
-8.00786
  0
LINE
  8
0
 10
-28.8317
 20
-8.00786
 11
-21.9739
 21
-12.9903
  0
LINE
  8
0
 10
-21.9739
 20
-12.9903
 11
-15.7946
 21
-18.7931
  0
LINE
  8
0
 10
-15.7946
 20
-18.7931
 11
-10.3913
 21
-25.3245
  0
LINE
  8
0
 10
-10.3913
 20
-25.3245
 11
-5.84929
 21
-32.4816
  0
LINE
  8
0
 10
-5.84929
 20
-32.4816
 11
-3.72775
 21
-36.9901
  0
LINE
  8
0
 10
-3.72775
 20
-36.9901
 11
3.72775
 21
-36.9901
  0
LINE
  8
0
 10
3.72775
 20
-36.9901
 11
5.84929
 21
-32.4816
  0
LINE
  8
0
 10
29.9058
 20
-1.49704
 11
29.7189
 21
-1.47342
  0
LINE
  8
0
 10
29.7189
 20
-1.47342
 11
29.5365
 21
-1.42657
  0
LINE
  8
0
 10
29.5365
 20
-1.42657
 11
29.3613
 21
-1.35724
  0
LINE
  8
0
 10
29.3613
 20
-1.35724
 11
29.1963
 21
-1.26648
  0
LINE
  8
0
 10
29.1963
 20
-1.26648
 11
29.0439
 21
-1.15576
  0
LINE
  8
0
 10
29.0439
 20
-1.15576
 11
28.9065
 21
-1.02681
  0
LINE
  8
0
 10
28.9065
 20
-1.02681
 11
28.7865
 21
-0.881668
  0
LINE
  8
0
 10
28.7865
 20
-0.881668
 11
28.6855
 21
-0.722626
  0
LINE
  8
0
 10
28.6855
 20
-0.722626
 11
28.6053
 21
-0.552185
  0
LINE
  8
0
 10
28.6053
 20
-0.552185
 11
28.5471
 21
-0.373032
  0
LINE
  8
0
 10
28.5471
 20
-0.373032
 11
28.5118
 21
-0.187988
  0
LINE
  8
0
 10
28.5118
 20
-0.187988
 11
28.5
 21
0
  0
LINE
  8
0
 10
28.5
 20
0
 11
28.5118
 21
0.187988
  0
LINE
  8
0
 10
28.5118
 20
0.187988
 11
28.5471
 21
0.373032
  0
LINE
  8
0
 10
28.5471
 20
0.373032
 11
28.6053
 21
0.552185
  0
LINE
  8
0
 10
28.6053
 20
0.552185
 11
28.6855
 21
0.722626
  0
LINE
  8
0
 10
28.6855
 20
0.722626
 11
28.7865
 21
0.881668
  0
LINE
  8
0
 10
28.7865
 20
0.881668
 11
28.9065
 21
1.02681
  0
LINE
  8
0
 10
28.9065
 20
1.02681
 11
29.0439
 21
1.15576
  0
LINE
  8
0
 10
29.0439
 20
1.15576
 11
29.1963
 21
1.26648
  0
LINE
  8
0
 10
29.1963
 20
1.26648
 11
29.3613
 21
1.35724
  0
LINE
  8
0
 10
29.3613
 20
1.35724
 11
29.5365
 21
1.42657
  0
LINE
  8
0
 10
29.5365
 20
1.42657
 11
29.7189
 21
1.47342
  0
LINE
  8
0
 10
29.7189
 20
1.47342
 11
29.9058
 21
1.49704
  0
LINE
  8
0
 10
29.9058
 20
1.49704
 11
30.0942
 21
1.49704
  0
LINE
  8
0
 10
30.0942
 20
1.49704
 11
30.2811
 21
1.47342
  0
LINE
  8
0
 10
30.2811
 20
1.47342
 11
30.4635
 21
1.42657
  0
LINE
  8
0
 10
30.4635
 20
1.42657
 11
30.6387
 21
1.35724
  0
LINE
  8
0
 10
30.6387
 20
1.35724
 11
30.8037
 21
1.26648
  0
LINE
  8
0
 10
30.8037
 20
1.26648
 11
30.9561
 21
1.15576
  0
LINE
  8
0
 10
30.9561
 20
1.15576
 11
31.0934
 21
1.02681
  0
LINE
  8
0
 10
31.0934
 20
1.02681
 11
31.2135
 21
0.881668
  0
LINE
  8
0
 10
31.2135
 20
0.881668
 11
31.3145
 21
0.722626
  0
LINE
  8
0
 10
31.3145
 20
0.722626
 11
31.3947
 21
0.552185
  0
LINE
  8
0
 10
31.3947
 20
0.552185
 11
31.4529
 21
0.373032
  0
LINE
  8
0
 10
31.4529
 20
0.373032
 11
31.4882
 21
0.187988
  0
LINE
  8
0
 10
31.4882
 20
0.187988
 11
31.5
 21
0
  0
LINE
  8
0
 10
31.5
 20
0
 11
31.4882
 21
-0.187988
  0
LINE
  8
0
 10
31.4882
 20
-0.187988
 11
31.4529
 21
-0.373032
  0
LINE
  8
0
 10
31.4529
 20
-0.373032
 11
31.3947
 21
-0.552185
  0
LINE
  8
0
 10
31.3947
 20
-0.552185
 11
31.3145
 21
-0.722626
  0
LINE
  8
0
 10
31.3145
 20
-0.722626
 11
31.2135
 21
-0.881668
  0
LINE
  8
0
 10
31.2135
 20
-0.881668
 11
31.0934
 21
-1.02681
  0
LINE
  8
0
 10
31.0934
 20
-1.02681
 11
30.9561
 21
-1.15576
  0
LINE
  8
0
 10
30.9561
 20
-1.15576
 11
30.8037
 21
-1.26648
  0
LINE
  8
0
 10
30.8037
 20
-1.26648
 11
30.6387
 21
-1.35724
  0
LINE
  8
0
 10
30.6387
 20
-1.35724
 11
30.4635
 21
-1.42657
  0
LINE
  8
0
 10
30.4635
 20
-1.42657
 11
30.2811
 21
-1.47342
  0
LINE
  8
0
 10
30.2811
 20
-1.47342
 11
30.0942
 21
-1.49704
  0
LINE
  8
0
 10
30.0942
 20
-1.49704
 11
29.9058
 21
-1.49704
  0
LINE
  8
0
 10
-30.0942
 20
-1.49704
 11
-30.2811
 21
-1.47342
  0
LINE
  8
0
 10
-30.2811
 20
-1.47342
 11
-30.4635
 21
-1.42657
  0
LINE
  8
0
 10
-30.4635
 20
-1.42657
 11
-30.6387
 21
-1.35724
  0
LINE
  8
0
 10
-30.6387
 20
-1.35724
 11
-30.8037
 21
-1.26648
  0
LINE
  8
0
 10
-30.8037
 20
-1.26648
 11
-30.9561
 21
-1.15576
  0
LINE
  8
0
 10
-30.9561
 20
-1.15576
 11
-31.0934
 21
-1.02681
  0
LINE
  8
0
 10
-31.0934
 20
-1.02681
 11
-31.2135
 21
-0.881668
  0
LINE
  8
0
 10
-31.2135
 20
-0.881668
 11
-31.3145
 21
-0.722626
  0
LINE
  8
0
 10
-31.3145
 20
-0.722626
 11
-31.3947
 21
-0.552185
  0
LINE
  8
0
 10
-31.3947
 20
-0.552185
 11
-31.4529
 21
-0.373032
  0
LINE
  8
0
 10
-31.4529
 20
-0.373032
 11
-31.4882
 21
-0.187988
  0
LINE
  8
0
 10
-31.4882
 20
-0.187988
 11
-31.5
 21
0
  0
LINE
  8
0
 10
-31.5
 20
0
 11
-31.4882
 21
0.187988
  0
LINE
  8
0
 10
-31.4882
 20
0.187988
 11
-31.4529
 21
0.373032
  0
LINE
  8
0
 10
-31.4529
 20
0.373032
 11
-31.3947
 21
0.552185
  0
LINE
  8
0
 10
-31.3947
 20
0.552185
 11
-31.3145
 21
0.722626
  0
LINE
  8
0
 10
-31.3145
 20
0.722626
 11
-31.2135
 21
0.881668
  0
LINE
  8
0
 10
-31.2135
 20
0.881668
 11
-31.0934
 21
1.02681
  0
LINE
  8
0
 10
-31.0934
 20
1.02681
 11
-30.9561
 21
1.15576
  0
LINE
  8
0
 10
-30.9561
 20
1.15576
 11
-30.8037
 21
1.26648
  0
LINE
  8
0
 10
-30.8037
 20
1.26648
 11
-30.6387
 21
1.35724
  0
LINE
  8
0
 10
-30.6387
 20
1.35724
 11
-30.4635
 21
1.42657
  0
LINE
  8
0
 10
-30.4635
 20
1.42657
 11
-30.2811
 21
1.47342
  0
LINE
  8
0
 10
-30.2811
 20
1.47342
 11
-30.0942
 21
1.49704
  0
LINE
  8
0
 10
-30.0942
 20
1.49704
 11
-29.9058
 21
1.49704
  0
LINE
  8
0
 10
-29.9058
 20
1.49704
 11
-29.7189
 21
1.47342
  0
LINE
  8
0
 10
-29.7189
 20
1.47342
 11
-29.5365
 21
1.42657
  0
LINE
  8
0
 10
-29.5365
 20
1.42657
 11
-29.3613
 21
1.35724
  0
LINE
  8
0
 10
-29.3613
 20
1.35724
 11
-29.1963
 21
1.26648
  0
LINE
  8
0
 10
-29.1963
 20
1.26648
 11
-29.0439
 21
1.15576
  0
LINE
  8
0
 10
-29.0439
 20
1.15576
 11
-28.9065
 21
1.02681
  0
LINE
  8
0
 10
-28.9065
 20
1.02681
 11
-28.7865
 21
0.881668
  0
LINE
  8
0
 10
-28.7865
 20
0.881668
 11
-28.6855
 21
0.722626
  0
LINE
  8
0
 10
-28.6855
 20
0.722626
 11
-28.6053
 21
0.552185
  0
LINE
  8
0
 10
-28.6053
 20
0.552185
 11
-28.5471
 21
0.373032
  0
LINE
  8
0
 10
-28.5471
 20
0.373032
 11
-28.5118
 21
0.187988
  0
LINE
  8
0
 10
-28.5118
 20
0.187988
 11
-28.5
 21
0
  0
LINE
  8
0
 10
-28.5
 20
0
 11
-28.5118
 21
-0.187988
  0
LINE
  8
0
 10
-28.5118
 20
-0.187988
 11
-28.5471
 21
-0.373032
  0
LINE
  8
0
 10
-28.5471
 20
-0.373032
 11
-28.6053
 21
-0.552185
  0
LINE
  8
0
 10
-28.6053
 20
-0.552185
 11
-28.6855
 21
-0.722626
  0
LINE
  8
0
 10
-28.6855
 20
-0.722626
 11
-28.7865
 21
-0.881668
  0
LINE
  8
0
 10
-28.7865
 20
-0.881668
 11
-28.9065
 21
-1.02681
  0
LINE
  8
0
 10
-28.9065
 20
-1.02681
 11
-29.0439
 21
-1.15576
  0
LINE
  8
0
 10
-29.0439
 20
-1.15576
 11
-29.1963
 21
-1.26648
  0
LINE
  8
0
 10
-29.1963
 20
-1.26648
 11
-29.3613
 21
-1.35724
  0
LINE
  8
0
 10
-29.3613
 20
-1.35724
 11
-29.5365
 21
-1.42657
  0
LINE
  8
0
 10
-29.5365
 20
-1.42657
 11
-29.7189
 21
-1.47342
  0
LINE
  8
0
 10
-29.7189
 20
-1.47342
 11
-29.9058
 21
-1.49704
  0
LINE
  8
0
 10
-29.9058
 20
-1.49704
 11
-30.0942
 21
-1.49704
  0
LINE
  8
0
 10
-0.0941772
 20
-31.497
 11
-0.281067
 21
-31.4734
  0
LINE
  8
0
 10
-0.281067
 20
-31.4734
 11
-0.463516
 21
-31.4266
  0
LINE
  8
0
 10
-0.463516
 20
-31.4266
 11
-0.638657
 21
-31.3572
  0
LINE
  8
0
 10
-0.638657
 20
-31.3572
 11
-0.803726
 21
-31.2665
  0
LINE
  8
0
 10
-0.803726
 20
-31.2665
 11
-0.956131
 21
-31.1558
  0
LINE
  8
0
 10
-0.956131
 20
-31.1558
 11
-1.09344
 21
-31.0268
  0
LINE
  8
0
 10
-1.09344
 20
-31.0268
 11
-1.21352
 21
-30.8817
  0
LINE
  8
0
 10
-1.21352
 20
-30.8817
 11
-1.31445
 21
-30.7226
  0
LINE
  8
0
 10
-1.31445
 20
-30.7226
 11
-1.39465
 21
-30.5522
  0
LINE
  8
0
 10
-1.39465
 20
-30.5522
 11
-1.45287
 21
-30.373
  0
LINE
  8
0
 10
-1.45287
 20
-30.373
 11
-1.48816
 21
-30.188
  0
LINE
  8
0
 10
-1.48816
 20
-30.188
 11
-1.5
 21
-30
  0
LINE
  8
0
 10
-1.5
 20
-30
 11
-1.48816
 21
-29.812
  0
LINE
  8
0
 10
-1.48816
 20
-29.812
 11
-1.45287
 21
-29.627
  0
LINE
  8
0
 10
-1.45287
 20
-29.627
 11
-1.39465
 21
-29.4478
  0
LINE
  8
0
 10
-1.39465
 20
-29.4478
 11
-1.31445
 21
-29.2774
  0
LINE
  8
0
 10
-1.31445
 20
-29.2774
 11
-1.21352
 21
-29.1183
  0
LINE
  8
0
 10
-1.21352
 20
-29.1183
 11
-1.09344
 21
-28.9732
  0
LINE
  8
0
 10
-1.09344
 20
-28.9732
 11
-0.956131
 21
-28.8442
  0
LINE
  8
0
 10
-0.956131
 20
-28.8442
 11
-0.803726
 21
-28.7335
  0
LINE
  8
0
 10
-0.803726
 20
-28.7335
 11
-0.638657
 21
-28.6427
  0
LINE
  8
0
 10
-0.638657
 20
-28.6427
 11
-0.463516
 21
-28.5734
  0
LINE
  8
0
 10
-0.463516
 20
-28.5734
 11
-0.281067
 21
-28.5266
  0
LINE
  8
0
 10
-0.281067
 20
-28.5266
 11
-0.0941772
 21
-28.503
  0
LINE
  8
0
 10
-0.0941772
 20
-28.503
 11
0.0941772
 21
-28.503
  0
LINE
  8
0
 10
0.0941772
 20
-28.503
 11
0.281067
 21
-28.5266
  0
LINE
  8
0
 10
0.281067
 20
-28.5266
 11
0.463516
 21
-28.5734
  0
LINE
  8
0
 10
0.463516
 20
-28.5734
 11
0.638657
 21
-28.6427
  0
LINE
  8
0
 10
0.638657
 20
-28.6427
 11
0.803726
 21
-28.7335
  0
LINE
  8
0
 10
0.803726
 20
-28.7335
 11
0.956131
 21
-28.8442
  0
LINE
  8
0
 10
0.956131
 20
-28.8442
 11
1.09344
 21
-28.9732
  0
LINE
  8
0
 10
1.09344
 20
-28.9732
 11
1.21352
 21
-29.1183
  0
LINE
  8
0
 10
1.21352
 20
-29.1183
 11
1.31445
 21
-29.2774
  0
LINE
  8
0
 10
1.31445
 20
-29.2774
 11
1.39465
 21
-29.4478
  0
LINE
  8
0
 10
1.39465
 20
-29.4478
 11
1.45287
 21
-29.627
  0
LINE
  8
0
 10
1.45287
 20
-29.627
 11
1.48816
 21
-29.812
  0
LINE
  8
0
 10
1.48816
 20
-29.812
 11
1.5
 21
-30
  0
LINE
  8
0
 10
1.5
 20
-30
 11
1.48816
 21
-30.188
  0
LINE
  8
0
 10
1.48816
 20
-30.188
 11
1.45287
 21
-30.373
  0
LINE
  8
0
 10
1.45287
 20
-30.373
 11
1.39465
 21
-30.5522
  0
LINE
  8
0
 10
1.39465
 20
-30.5522
 11
1.31445
 21
-30.7226
  0
LINE
  8
0
 10
1.31445
 20
-30.7226
 11
1.21352
 21
-30.8817
  0
LINE
  8
0
 10
1.21352
 20
-30.8817
 11
1.09344
 21
-31.0268
  0
LINE
  8
0
 10
1.09344
 20
-31.0268
 11
0.956131
 21
-31.1558
  0
LINE
  8
0
 10
0.956131
 20
-31.1558
 11
0.803726
 21
-31.2665
  0
LINE
  8
0
 10
0.803726
 20
-31.2665
 11
0.638657
 21
-31.3572
  0
LINE
  8
0
 10
0.638657
 20
-31.3572
 11
0.463516
 21
-31.4266
  0
LINE
  8
0
 10
0.463516
 20
-31.4266
 11
0.281067
 21
-31.4734
  0
LINE
  8
0
 10
0.281067
 20
-31.4734
 11
0.0941772
 21
-31.497
  0
LINE
  8
0
 10
0.0941772
 20
-31.497
 11
-0.0941772
 21
-31.497
  0
ENDSEC
  0
SECTION
  2
OBJECTS
  0
DICTIONARY
  0
ENDSEC
  0
EOF
