<?xml version="1.0" standalone="no"?>
<!DOCTYPE svg PUBLIC "-//W3C//DTD SVG 1.1//EN" "http://www.w3.org/Graphics/SVG/1.1/DTD/svg11.dtd">
<svg width="6mm" height="30mm" viewBox="-3 -51 6 30" xmlns="http://www.w3.org/2000/svg" version="1.1">
<title>OpenSCAD Model</title>
<path d="
M 0.445023,-45.6671 L 0.733902,-45.7412 L 1.01122,-45.851 L 1.27258,-45.9947 L 1.51387,-46.17 L 1.73129,-46.3742
 L 1.9214,-46.604 L 2.08122,-46.8559 L 2.20821,-47.1257 L 2.30038,-47.4094 L 2.35626,-47.7023 L 2.375,-48
 L 2.35626,-48.2977 L 2.30038,-48.5906 L 2.20821,-48.8743 L 2.08122,-49.1441 L 1.9214,-49.396 L 1.73129,-49.6258
 L 1.51387,-49.83 L 1.27258,-50.0053 L 1.01122,-50.149 L 0.733902,-50.2588 L 0.445023,-50.3329 L 0.149124,-50.3703
 L -0.149124,-50.3703 L -0.445023,-50.3329 L -0.733902,-50.2588 L -1.01122,-50.149 L -1.27258,-50.0053 L -1.51387,-49.83
 L -1.73129,-49.6258 L -1.9214,-49.396 L -2.08122,-49.1441 L -2.20821,-48.8743 L -2.30038,-48.5906 L -2.35626,-48.2977
 L -2.375,-48 L -2.35626,-47.7023 L -2.30038,-47.4094 L -2.20821,-47.1257 L -2.08122,-46.8559 L -1.9214,-46.604
 L -1.73129,-46.3742 L -1.51387,-46.17 L -1.27258,-45.9947 L -1.01122,-45.851 L -0.733902,-45.7412 L -0.445023,-45.6671
 L -0.149124,-45.6297 L 0.149124,-45.6297 z
M -0.113022,-46.2036 L -0.33728,-46.2319 L -0.556229,-46.2881 L -0.766388,-46.3713 L -0.964478,-46.4802 L -1.14735,-46.6131
 L -1.31213,-46.7678 L -1.45622,-46.942 L -1.57735,-47.1329 L -1.67358,-47.3374 L -1.74344,-47.5524 L -1.7858,-47.7744
 L -1.79999,-48 L -1.7858,-48.2256 L -1.74344,-48.4476 L -1.67358,-48.6626 L -1.57735,-48.8671 L -1.45622,-49.058
 L -1.31213,-49.2322 L -1.14735,-49.3869 L -0.964478,-49.5198 L -0.766388,-49.6287 L -0.556229,-49.7119 L -0.33728,-49.7681
 L -0.113022,-49.7964 L 0.113022,-49.7964 L 0.33728,-49.7681 L 0.556229,-49.7119 L 0.766388,-49.6287 L 0.964478,-49.5198
 L 1.14735,-49.3869 L 1.31213,-49.2322 L 1.45622,-49.058 L 1.57735,-48.8671 L 1.67358,-48.6626 L 1.74344,-48.4476
 L 1.7858,-48.2256 L 1.79999,-48 L 1.7858,-47.7744 L 1.74344,-47.5524 L 1.67358,-47.3374 L 1.57735,-47.1329
 L 1.45622,-46.942 L 1.31213,-46.7678 L 1.14735,-46.6131 L 0.964478,-46.4802 L 0.766388,-46.3713 L 0.556229,-46.2881
 L 0.33728,-46.2319 L 0.113022,-46.2036 z
M 0.445023,-21.6671 L 0.733902,-21.7412 L 1.01122,-21.851 L 1.27258,-21.9947 L 1.51387,-22.17 L 1.73129,-22.3742
 L 1.9214,-22.604 L 2.08122,-22.8559 L 2.20821,-23.1257 L 2.30038,-23.4094 L 2.35626,-23.7023 L 2.375,-24
 L 2.35626,-24.2977 L 2.30038,-24.5906 L 2.20821,-24.8743 L 2.08122,-25.1441 L 1.9214,-25.396 L 1.73129,-25.6258
 L 1.51387,-25.83 L 1.27258,-26.0053 L 1.01122,-26.149 L 0.733902,-26.2588 L 0.445023,-26.3329 L 0.149124,-26.3703
 L -0.149124,-26.3703 L -0.445023,-26.3329 L -0.733902,-26.2588 L -1.01122,-26.149 L -1.27258,-26.0053 L -1.51387,-25.83
 L -1.73129,-25.6258 L -1.9214,-25.396 L -2.08122,-25.1441 L -2.20821,-24.8743 L -2.30038,-24.5906 L -2.35626,-24.2977
 L -2.375,-24 L -2.35626,-23.7023 L -2.30038,-23.4094 L -2.20821,-23.1257 L -2.08122,-22.8559 L -1.9214,-22.604
 L -1.73129,-22.3742 L -1.51387,-22.17 L -1.27258,-21.9947 L -1.01122,-21.851 L -0.733902,-21.7412 L -0.445023,-21.6671
 L -0.149124,-21.6297 L 0.149124,-21.6297 z
M -0.113022,-22.2036 L -0.33728,-22.2319 L -0.556229,-22.2881 L -0.766388,-22.3713 L -0.964478,-22.4802 L -1.14735,-22.6131
 L -1.31213,-22.7678 L -1.45622,-22.942 L -1.57735,-23.1329 L -1.67358,-23.3374 L -1.74344,-23.5524 L -1.7858,-23.7744
 L -1.79999,-24 L -1.7858,-24.2256 L -1.74344,-24.4476 L -1.67358,-24.6626 L -1.57735,-24.8671 L -1.45622,-25.058
 L -1.31213,-25.2322 L -1.14735,-25.3869 L -0.964478,-25.5198 L -0.766388,-25.6287 L -0.556229,-25.7119 L -0.33728,-25.7681
 L -0.113022,-25.7964 L 0.113022,-25.7964 L 0.33728,-25.7681 L 0.556229,-25.7119 L 0.766388,-25.6287 L 0.964478,-25.5198
 L 1.14735,-25.3869 L 1.31213,-25.2322 L 1.45622,-25.058 L 1.57735,-24.8671 L 1.67358,-24.6626 L 1.74344,-24.4476
 L 1.7858,-24.2256 L 1.79999,-24 L 1.7858,-23.7744 L 1.74344,-23.5524 L 1.67358,-23.3374 L 1.57735,-23.1329
 L 1.45622,-22.942 L 1.31213,-22.7678 L 1.14735,-22.6131 L 0.964478,-22.4802 L 0.766388,-22.3713 L 0.556229,-22.2881
 L 0.33728,-22.2319 L 0.113022,-22.2036 z
" stroke="black" fill="lightgray" stroke-width="0.5"/>
</svg>
