  0
SECTION
  2
BLOCKS
  0
ENDSEC
  0
SECTION
  2
ENTITIES
  0
LINE
  8
0
 10
37
 20
224
 11
36.9606
 21
224.627
  0
LINE
  8
0
 10
36.9606
 20
224.627
 11
36.8429
 21
225.243
  0
LINE
  8
0
 10
36.8429
 20
225.243
 11
36.6489
 21
225.841
  0
LINE
  8
0
 10
36.6489
 20
225.841
 11
36.3815
 21
226.409
  0
LINE
  8
0
 10
36.3815
 20
226.409
 11
36.0451
 21
226.939
  0
LINE
  8
0
 10
36.0451
 20
226.939
 11
35.6448
 21
227.423
  0
LINE
  8
0
 10
35.6448
 20
227.423
 11
35.1871
 21
227.853
  0
LINE
  8
0
 10
35.1871
 20
227.853
 11
34.6791
 21
228.222
  0
LINE
  8
0
 10
34.6791
 20
228.222
 11
34.1289
 21
228.524
  0
LINE
  8
0
 10
34.1289
 20
228.524
 11
33.5451
 21
228.755
  0
LINE
  8
0
 10
33.5451
 20
228.755
 11
32.9369
 21
228.911
  0
LINE
  8
0
 10
32.9369
 20
228.911
 11
32.3139
 21
228.99
  0
LINE
  8
0
 10
32.3139
 20
228.99
 11
-32.3139
 21
228.99
  0
LINE
  8
0
 10
-32.3139
 20
228.99
 11
-32.9369
 21
228.911
  0
LINE
  8
0
 10
-32.9369
 20
228.911
 11
-33.5451
 21
228.755
  0
LINE
  8
0
 10
-33.5451
 20
228.755
 11
-34.1289
 21
228.524
  0
LINE
  8
0
 10
-34.1289
 20
228.524
 11
-34.6791
 21
228.222
  0
LINE
  8
0
 10
-34.6791
 20
228.222
 11
-35.1871
 21
227.853
  0
LINE
  8
0
 10
-35.1871
 20
227.853
 11
-35.6448
 21
227.423
  0
LINE
  8
0
 10
-35.6448
 20
227.423
 11
-36.0451
 21
226.939
  0
LINE
  8
0
 10
-36.0451
 20
226.939
 11
-36.3815
 21
226.409
  0
LINE
  8
0
 10
-36.3815
 20
226.409
 11
-36.6489
 21
225.841
  0
LINE
  8
0
 10
-36.6489
 20
225.841
 11
-36.8429
 21
225.243
  0
LINE
  8
0
 10
-36.8429
 20
225.243
 11
-36.9606
 21
224.627
  0
LINE
  8
0
 10
-36.9606
 20
224.627
 11
-37
 21
224
  0
LINE
  8
0
 10
-37
 20
224
 11
-37
 21
213
  0
LINE
  8
0
 10
-37
 20
213
 11
37
 21
213
  0
LINE
  8
0
 10
37
 20
213
 11
37
 21
224
  0
LINE
  8
0
 10
-30.1334
 20
219.879
 11
-30.3982
 21
219.913
  0
LINE
  8
0
 10
-30.3982
 20
219.913
 11
-30.6567
 21
219.979
  0
LINE
  8
0
 10
-30.6567
 20
219.979
 11
-30.9048
 21
220.077
  0
LINE
  8
0
 10
-30.9048
 20
220.077
 11
-31.1386
 21
220.206
  0
LINE
  8
0
 10
-31.1386
 20
220.206
 11
-31.3545
 21
220.363
  0
LINE
  8
0
 10
-31.3545
 20
220.363
 11
-31.5491
 21
220.545
  0
LINE
  8
0
 10
-31.5491
 20
220.545
 11
-31.7192
 21
220.751
  0
LINE
  8
0
 10
-31.7192
 20
220.751
 11
-31.8622
 21
220.976
  0
LINE
  8
0
 10
-31.8622
 20
220.976
 11
-31.9758
 21
221.218
  0
LINE
  8
0
 10
-31.9758
 20
221.218
 11
-32.0582
 21
221.472
  0
LINE
  8
0
 10
-32.0582
 20
221.472
 11
-32.1082
 21
221.734
  0
LINE
  8
0
 10
-32.1082
 20
221.734
 11
-32.125
 21
222
  0
LINE
  8
0
 10
-32.125
 20
222
 11
-32.1082
 21
222.266
  0
LINE
  8
0
 10
-32.1082
 20
222.266
 11
-32.0582
 21
222.528
  0
LINE
  8
0
 10
-32.0582
 20
222.528
 11
-31.9758
 21
222.782
  0
LINE
  8
0
 10
-31.9758
 20
222.782
 11
-31.8622
 21
223.024
  0
LINE
  8
0
 10
-31.8622
 20
223.024
 11
-31.7192
 21
223.249
  0
LINE
  8
0
 10
-31.7192
 20
223.249
 11
-31.5491
 21
223.455
  0
LINE
  8
0
 10
-31.5491
 20
223.455
 11
-31.3545
 21
223.637
  0
LINE
  8
0
 10
-31.3545
 20
223.637
 11
-31.1386
 21
223.794
  0
LINE
  8
0
 10
-31.1386
 20
223.794
 11
-30.9048
 21
223.923
  0
LINE
  8
0
 10
-30.9048
 20
223.923
 11
-30.6567
 21
224.021
  0
LINE
  8
0
 10
-30.6567
 20
224.021
 11
-30.3982
 21
224.087
  0
LINE
  8
0
 10
-30.3982
 20
224.087
 11
-30.1334
 21
224.121
  0
LINE
  8
0
 10
-30.1334
 20
224.121
 11
-29.8666
 21
224.121
  0
LINE
  8
0
 10
-29.8666
 20
224.121
 11
-29.6018
 21
224.087
  0
LINE
  8
0
 10
-29.6018
 20
224.087
 11
-29.3433
 21
224.021
  0
LINE
  8
0
 10
-29.3433
 20
224.021
 11
-29.0952
 21
223.923
  0
LINE
  8
0
 10
-29.0952
 20
223.923
 11
-28.8614
 21
223.794
  0
LINE
  8
0
 10
-28.8614
 20
223.794
 11
-28.6455
 21
223.637
  0
LINE
  8
0
 10
-28.6455
 20
223.637
 11
-28.4509
 21
223.455
  0
LINE
  8
0
 10
-28.4509
 20
223.455
 11
-28.2808
 21
223.249
  0
LINE
  8
0
 10
-28.2808
 20
223.249
 11
-28.1378
 21
223.024
  0
LINE
  8
0
 10
-28.1378
 20
223.024
 11
-28.0242
 21
222.782
  0
LINE
  8
0
 10
-28.0242
 20
222.782
 11
-27.9418
 21
222.528
  0
LINE
  8
0
 10
-27.9418
 20
222.528
 11
-27.8918
 21
222.266
  0
LINE
  8
0
 10
-27.8918
 20
222.266
 11
-27.875
 21
222
  0
LINE
  8
0
 10
-27.875
 20
222
 11
-27.8918
 21
221.734
  0
LINE
  8
0
 10
-27.8918
 20
221.734
 11
-27.9418
 21
221.472
  0
LINE
  8
0
 10
-27.9418
 20
221.472
 11
-28.0242
 21
221.218
  0
LINE
  8
0
 10
-28.0242
 20
221.218
 11
-28.1378
 21
220.976
  0
LINE
  8
0
 10
-28.1378
 20
220.976
 11
-28.2808
 21
220.751
  0
LINE
  8
0
 10
-28.2808
 20
220.751
 11
-28.4509
 21
220.545
  0
LINE
  8
0
 10
-28.4509
 20
220.545
 11
-28.6455
 21
220.363
  0
LINE
  8
0
 10
-28.6455
 20
220.363
 11
-28.8614
 21
220.206
  0
LINE
  8
0
 10
-28.8614
 20
220.206
 11
-29.0952
 21
220.077
  0
LINE
  8
0
 10
-29.0952
 20
220.077
 11
-29.3433
 21
219.979
  0
LINE
  8
0
 10
-29.3433
 20
219.979
 11
-29.6018
 21
219.913
  0
LINE
  8
0
 10
-29.6018
 20
219.913
 11
-29.8666
 21
219.879
  0
LINE
  8
0
 10
-29.8666
 20
219.879
 11
-30.1334
 21
219.879
  0
LINE
  8
0
 10
-0.133423
 20
219.879
 11
-0.398178
 21
219.913
  0
LINE
  8
0
 10
-0.398178
 20
219.913
 11
-0.656647
 21
219.979
  0
LINE
  8
0
 10
-0.656647
 20
219.979
 11
-0.90477
 21
220.077
  0
LINE
  8
0
 10
-0.90477
 20
220.077
 11
-1.13863
 21
220.206
  0
LINE
  8
0
 10
-1.13863
 20
220.206
 11
-1.35452
 21
220.363
  0
LINE
  8
0
 10
-1.35452
 20
220.363
 11
-1.54906
 21
220.545
  0
LINE
  8
0
 10
-1.54906
 20
220.545
 11
-1.71915
 21
220.751
  0
LINE
  8
0
 10
-1.71915
 20
220.751
 11
-1.86214
 21
220.976
  0
LINE
  8
0
 10
-1.86214
 20
220.976
 11
-1.97577
 21
221.218
  0
LINE
  8
0
 10
-1.97577
 20
221.218
 11
-2.05823
 21
221.472
  0
LINE
  8
0
 10
-2.05823
 20
221.472
 11
-2.10823
 21
221.734
  0
LINE
  8
0
 10
-2.10823
 20
221.734
 11
-2.125
 21
222
  0
LINE
  8
0
 10
-2.125
 20
222
 11
-2.10823
 21
222.266
  0
LINE
  8
0
 10
-2.10823
 20
222.266
 11
-2.05823
 21
222.528
  0
LINE
  8
0
 10
-2.05823
 20
222.528
 11
-1.97577
 21
222.782
  0
LINE
  8
0
 10
-1.97577
 20
222.782
 11
-1.86214
 21
223.024
  0
LINE
  8
0
 10
-1.86214
 20
223.024
 11
-1.71915
 21
223.249
  0
LINE
  8
0
 10
-1.71915
 20
223.249
 11
-1.54906
 21
223.455
  0
LINE
  8
0
 10
-1.54906
 20
223.455
 11
-1.35452
 21
223.637
  0
LINE
  8
0
 10
-1.35452
 20
223.637
 11
-1.13863
 21
223.794
  0
LINE
  8
0
 10
-1.13863
 20
223.794
 11
-0.90477
 21
223.923
  0
LINE
  8
0
 10
-0.90477
 20
223.923
 11
-0.656647
 21
224.021
  0
LINE
  8
0
 10
-0.656647
 20
224.021
 11
-0.398178
 21
224.087
  0
LINE
  8
0
 10
-0.398178
 20
224.087
 11
-0.133423
 21
224.121
  0
LINE
  8
0
 10
-0.133423
 20
224.121
 11
0.133423
 21
224.121
  0
LINE
  8
0
 10
0.133423
 20
224.121
 11
0.398178
 21
224.087
  0
LINE
  8
0
 10
0.398178
 20
224.087
 11
0.656647
 21
224.021
  0
LINE
  8
0
 10
0.656647
 20
224.021
 11
0.90477
 21
223.923
  0
LINE
  8
0
 10
0.90477
 20
223.923
 11
1.13863
 21
223.794
  0
LINE
  8
0
 10
1.13863
 20
223.794
 11
1.35452
 21
223.637
  0
LINE
  8
0
 10
1.35452
 20
223.637
 11
1.54906
 21
223.455
  0
LINE
  8
0
 10
1.54906
 20
223.455
 11
1.71915
 21
223.249
  0
LINE
  8
0
 10
1.71915
 20
223.249
 11
1.86214
 21
223.024
  0
LINE
  8
0
 10
1.86214
 20
223.024
 11
1.97577
 21
222.782
  0
LINE
  8
0
 10
1.97577
 20
222.782
 11
2.05823
 21
222.528
  0
LINE
  8
0
 10
2.05823
 20
222.528
 11
2.10823
 21
222.266
  0
LINE
  8
0
 10
2.10823
 20
222.266
 11
2.125
 21
222
  0
LINE
  8
0
 10
2.125
 20
222
 11
2.10823
 21
221.734
  0
LINE
  8
0
 10
2.10823
 20
221.734
 11
2.05823
 21
221.472
  0
LINE
  8
0
 10
2.05823
 20
221.472
 11
1.97577
 21
221.218
  0
LINE
  8
0
 10
1.97577
 20
221.218
 11
1.86214
 21
220.976
  0
LINE
  8
0
 10
1.86214
 20
220.976
 11
1.71915
 21
220.751
  0
LINE
  8
0
 10
1.71915
 20
220.751
 11
1.54906
 21
220.545
  0
LINE
  8
0
 10
1.54906
 20
220.545
 11
1.35452
 21
220.363
  0
LINE
  8
0
 10
1.35452
 20
220.363
 11
1.13863
 21
220.206
  0
LINE
  8
0
 10
1.13863
 20
220.206
 11
0.90477
 21
220.077
  0
LINE
  8
0
 10
0.90477
 20
220.077
 11
0.656647
 21
219.979
  0
LINE
  8
0
 10
0.656647
 20
219.979
 11
0.398178
 21
219.913
  0
LINE
  8
0
 10
0.398178
 20
219.913
 11
0.133423
 21
219.879
  0
LINE
  8
0
 10
0.133423
 20
219.879
 11
-0.133423
 21
219.879
  0
LINE
  8
0
 10
29.8666
 20
219.879
 11
29.6018
 21
219.913
  0
LINE
  8
0
 10
29.6018
 20
219.913
 11
29.3433
 21
219.979
  0
LINE
  8
0
 10
29.3433
 20
219.979
 11
29.0952
 21
220.077
  0
LINE
  8
0
 10
29.0952
 20
220.077
 11
28.8614
 21
220.206
  0
LINE
  8
0
 10
28.8614
 20
220.206
 11
28.6455
 21
220.363
  0
LINE
  8
0
 10
28.6455
 20
220.363
 11
28.4509
 21
220.545
  0
LINE
  8
0
 10
28.4509
 20
220.545
 11
28.2808
 21
220.751
  0
LINE
  8
0
 10
28.2808
 20
220.751
 11
28.1378
 21
220.976
  0
LINE
  8
0
 10
28.1378
 20
220.976
 11
28.0242
 21
221.218
  0
LINE
  8
0
 10
28.0242
 20
221.218
 11
27.9418
 21
221.472
  0
LINE
  8
0
 10
27.9418
 20
221.472
 11
27.8918
 21
221.734
  0
LINE
  8
0
 10
27.8918
 20
221.734
 11
27.875
 21
222
  0
LINE
  8
0
 10
27.875
 20
222
 11
27.8918
 21
222.266
  0
LINE
  8
0
 10
27.8918
 20
222.266
 11
27.9418
 21
222.528
  0
LINE
  8
0
 10
27.9418
 20
222.528
 11
28.0242
 21
222.782
  0
LINE
  8
0
 10
28.0242
 20
222.782
 11
28.1378
 21
223.024
  0
LINE
  8
0
 10
28.1378
 20
223.024
 11
28.2808
 21
223.249
  0
LINE
  8
0
 10
28.2808
 20
223.249
 11
28.4509
 21
223.455
  0
LINE
  8
0
 10
28.4509
 20
223.455
 11
28.6455
 21
223.637
  0
LINE
  8
0
 10
28.6455
 20
223.637
 11
28.8614
 21
223.794
  0
LINE
  8
0
 10
28.8614
 20
223.794
 11
29.0952
 21
223.923
  0
LINE
  8
0
 10
29.0952
 20
223.923
 11
29.3433
 21
224.021
  0
LINE
  8
0
 10
29.3433
 20
224.021
 11
29.6018
 21
224.087
  0
LINE
  8
0
 10
29.6018
 20
224.087
 11
29.8666
 21
224.121
  0
LINE
  8
0
 10
29.8666
 20
224.121
 11
30.1334
 21
224.121
  0
LINE
  8
0
 10
30.1334
 20
224.121
 11
30.3982
 21
224.087
  0
LINE
  8
0
 10
30.3982
 20
224.087
 11
30.6567
 21
224.021
  0
LINE
  8
0
 10
30.6567
 20
224.021
 11
30.9048
 21
223.923
  0
LINE
  8
0
 10
30.9048
 20
223.923
 11
31.1386
 21
223.794
  0
LINE
  8
0
 10
31.1386
 20
223.794
 11
31.3545
 21
223.637
  0
LINE
  8
0
 10
31.3545
 20
223.637
 11
31.5491
 21
223.455
  0
LINE
  8
0
 10
31.5491
 20
223.455
 11
31.7192
 21
223.249
  0
LINE
  8
0
 10
31.7192
 20
223.249
 11
31.8622
 21
223.024
  0
LINE
  8
0
 10
31.8622
 20
223.024
 11
31.9758
 21
222.782
  0
LINE
  8
0
 10
31.9758
 20
222.782
 11
32.0582
 21
222.528
  0
LINE
  8
0
 10
32.0582
 20
222.528
 11
32.1082
 21
222.266
  0
LINE
  8
0
 10
32.1082
 20
222.266
 11
32.125
 21
222
  0
LINE
  8
0
 10
32.125
 20
222
 11
32.1082
 21
221.734
  0
LINE
  8
0
 10
32.1082
 20
221.734
 11
32.0582
 21
221.472
  0
LINE
  8
0
 10
32.0582
 20
221.472
 11
31.9758
 21
221.218
  0
LINE
  8
0
 10
31.9758
 20
221.218
 11
31.8622
 21
220.976
  0
LINE
  8
0
 10
31.8622
 20
220.976
 11
31.7192
 21
220.751
  0
LINE
  8
0
 10
31.7192
 20
220.751
 11
31.5491
 21
220.545
  0
LINE
  8
0
 10
31.5491
 20
220.545
 11
31.3545
 21
220.363
  0
LINE
  8
0
 10
31.3545
 20
220.363
 11
31.1386
 21
220.206
  0
LINE
  8
0
 10
31.1386
 20
220.206
 11
30.9048
 21
220.077
  0
LINE
  8
0
 10
30.9048
 20
220.077
 11
30.6567
 21
219.979
  0
LINE
  8
0
 10
30.6567
 20
219.979
 11
30.3982
 21
219.913
  0
LINE
  8
0
 10
30.3982
 20
219.913
 11
30.1334
 21
219.879
  0
LINE
  8
0
 10
30.1334
 20
219.879
 11
29.8666
 21
219.879
  0
LINE
  8
0
 10
37
 20
155
 11
36.9606
 21
155.627
  0
LINE
  8
0
 10
36.9606
 20
155.627
 11
36.8429
 21
156.243
  0
LINE
  8
0
 10
36.8429
 20
156.243
 11
36.6489
 21
156.841
  0
LINE
  8
0
 10
36.6489
 20
156.841
 11
36.3815
 21
157.409
  0
LINE
  8
0
 10
36.3815
 20
157.409
 11
36.0451
 21
157.939
  0
LINE
  8
0
 10
36.0451
 20
157.939
 11
35.6448
 21
158.423
  0
LINE
  8
0
 10
35.6448
 20
158.423
 11
35.1871
 21
158.853
  0
LINE
  8
0
 10
35.1871
 20
158.853
 11
34.6791
 21
159.222
  0
LINE
  8
0
 10
34.6791
 20
159.222
 11
34.1289
 21
159.524
  0
LINE
  8
0
 10
34.1289
 20
159.524
 11
33.5451
 21
159.755
  0
LINE
  8
0
 10
33.5451
 20
159.755
 11
32.9369
 21
159.911
  0
LINE
  8
0
 10
32.9369
 20
159.911
 11
32.3139
 21
159.99
  0
LINE
  8
0
 10
32.3139
 20
159.99
 11
-32.3139
 21
159.99
  0
LINE
  8
0
 10
-32.3139
 20
159.99
 11
-32.9369
 21
159.911
  0
LINE
  8
0
 10
-32.9369
 20
159.911
 11
-33.5451
 21
159.755
  0
LINE
  8
0
 10
-33.5451
 20
159.755
 11
-34.1289
 21
159.524
  0
LINE
  8
0
 10
-34.1289
 20
159.524
 11
-34.6791
 21
159.222
  0
LINE
  8
0
 10
-34.6791
 20
159.222
 11
-35.1871
 21
158.853
  0
LINE
  8
0
 10
-35.1871
 20
158.853
 11
-35.6448
 21
158.423
  0
LINE
  8
0
 10
-35.6448
 20
158.423
 11
-36.0451
 21
157.939
  0
LINE
  8
0
 10
-36.0451
 20
157.939
 11
-36.3815
 21
157.409
  0
LINE
  8
0
 10
-36.3815
 20
157.409
 11
-36.6489
 21
156.841
  0
LINE
  8
0
 10
-36.6489
 20
156.841
 11
-36.8429
 21
156.243
  0
LINE
  8
0
 10
-36.8429
 20
156.243
 11
-36.9606
 21
155.627
  0
LINE
  8
0
 10
-36.9606
 20
155.627
 11
-37
 21
155
  0
LINE
  8
0
 10
-37
 20
155
 11
-37
 21
144
  0
LINE
  8
0
 10
-37
 20
144
 11
37
 21
144
  0
LINE
  8
0
 10
37
 20
144
 11
37
 21
155
  0
LINE
  8
0
 10
-30.1334
 20
150.879
 11
-30.3982
 21
150.913
  0
LINE
  8
0
 10
-30.3982
 20
150.913
 11
-30.6567
 21
150.979
  0
LINE
  8
0
 10
-30.6567
 20
150.979
 11
-30.9048
 21
151.077
  0
LINE
  8
0
 10
-30.9048
 20
151.077
 11
-31.1386
 21
151.206
  0
LINE
  8
0
 10
-31.1386
 20
151.206
 11
-31.3545
 21
151.363
  0
LINE
  8
0
 10
-31.3545
 20
151.363
 11
-31.5491
 21
151.545
  0
LINE
  8
0
 10
-31.5491
 20
151.545
 11
-31.7192
 21
151.751
  0
LINE
  8
0
 10
-31.7192
 20
151.751
 11
-31.8622
 21
151.976
  0
LINE
  8
0
 10
-31.8622
 20
151.976
 11
-31.9758
 21
152.218
  0
LINE
  8
0
 10
-31.9758
 20
152.218
 11
-32.0582
 21
152.472
  0
LINE
  8
0
 10
-32.0582
 20
152.472
 11
-32.1082
 21
152.734
  0
LINE
  8
0
 10
-32.1082
 20
152.734
 11
-32.125
 21
153
  0
LINE
  8
0
 10
-32.125
 20
153
 11
-32.1082
 21
153.266
  0
LINE
  8
0
 10
-32.1082
 20
153.266
 11
-32.0582
 21
153.528
  0
LINE
  8
0
 10
-32.0582
 20
153.528
 11
-31.9758
 21
153.782
  0
LINE
  8
0
 10
-31.9758
 20
153.782
 11
-31.8622
 21
154.024
  0
LINE
  8
0
 10
-31.8622
 20
154.024
 11
-31.7192
 21
154.249
  0
LINE
  8
0
 10
-31.7192
 20
154.249
 11
-31.5491
 21
154.455
  0
LINE
  8
0
 10
-31.5491
 20
154.455
 11
-31.3545
 21
154.637
  0
LINE
  8
0
 10
-31.3545
 20
154.637
 11
-31.1386
 21
154.794
  0
LINE
  8
0
 10
-31.1386
 20
154.794
 11
-30.9048
 21
154.923
  0
LINE
  8
0
 10
-30.9048
 20
154.923
 11
-30.6567
 21
155.021
  0
LINE
  8
0
 10
-30.6567
 20
155.021
 11
-30.3982
 21
155.087
  0
LINE
  8
0
 10
-30.3982
 20
155.087
 11
-30.1334
 21
155.121
  0
LINE
  8
0
 10
-30.1334
 20
155.121
 11
-29.8666
 21
155.121
  0
LINE
  8
0
 10
-29.8666
 20
155.121
 11
-29.6018
 21
155.087
  0
LINE
  8
0
 10
-29.6018
 20
155.087
 11
-29.3433
 21
155.021
  0
LINE
  8
0
 10
-29.3433
 20
155.021
 11
-29.0952
 21
154.923
  0
LINE
  8
0
 10
-29.0952
 20
154.923
 11
-28.8614
 21
154.794
  0
LINE
  8
0
 10
-28.8614
 20
154.794
 11
-28.6455
 21
154.637
  0
LINE
  8
0
 10
-28.6455
 20
154.637
 11
-28.4509
 21
154.455
  0
LINE
  8
0
 10
-28.4509
 20
154.455
 11
-28.2808
 21
154.249
  0
LINE
  8
0
 10
-28.2808
 20
154.249
 11
-28.1378
 21
154.024
  0
LINE
  8
0
 10
-28.1378
 20
154.024
 11
-28.0242
 21
153.782
  0
LINE
  8
0
 10
-28.0242
 20
153.782
 11
-27.9418
 21
153.528
  0
LINE
  8
0
 10
-27.9418
 20
153.528
 11
-27.8918
 21
153.266
  0
LINE
  8
0
 10
-27.8918
 20
153.266
 11
-27.875
 21
153
  0
LINE
  8
0
 10
-27.875
 20
153
 11
-27.8918
 21
152.734
  0
LINE
  8
0
 10
-27.8918
 20
152.734
 11
-27.9418
 21
152.472
  0
LINE
  8
0
 10
-27.9418
 20
152.472
 11
-28.0242
 21
152.218
  0
LINE
  8
0
 10
-28.0242
 20
152.218
 11
-28.1378
 21
151.976
  0
LINE
  8
0
 10
-28.1378
 20
151.976
 11
-28.2808
 21
151.751
  0
LINE
  8
0
 10
-28.2808
 20
151.751
 11
-28.4509
 21
151.545
  0
LINE
  8
0
 10
-28.4509
 20
151.545
 11
-28.6455
 21
151.363
  0
LINE
  8
0
 10
-28.6455
 20
151.363
 11
-28.8614
 21
151.206
  0
LINE
  8
0
 10
-28.8614
 20
151.206
 11
-29.0952
 21
151.077
  0
LINE
  8
0
 10
-29.0952
 20
151.077
 11
-29.3433
 21
150.979
  0
LINE
  8
0
 10
-29.3433
 20
150.979
 11
-29.6018
 21
150.913
  0
LINE
  8
0
 10
-29.6018
 20
150.913
 11
-29.8666
 21
150.879
  0
LINE
  8
0
 10
-29.8666
 20
150.879
 11
-30.1334
 21
150.879
  0
LINE
  8
0
 10
-0.133423
 20
150.879
 11
-0.398178
 21
150.913
  0
LINE
  8
0
 10
-0.398178
 20
150.913
 11
-0.656647
 21
150.979
  0
LINE
  8
0
 10
-0.656647
 20
150.979
 11
-0.90477
 21
151.077
  0
LINE
  8
0
 10
-0.90477
 20
151.077
 11
-1.13863
 21
151.206
  0
LINE
  8
0
 10
-1.13863
 20
151.206
 11
-1.35452
 21
151.363
  0
LINE
  8
0
 10
-1.35452
 20
151.363
 11
-1.54906
 21
151.545
  0
LINE
  8
0
 10
-1.54906
 20
151.545
 11
-1.71915
 21
151.751
  0
LINE
  8
0
 10
-1.71915
 20
151.751
 11
-1.86214
 21
151.976
  0
LINE
  8
0
 10
-1.86214
 20
151.976
 11
-1.97577
 21
152.218
  0
LINE
  8
0
 10
-1.97577
 20
152.218
 11
-2.05823
 21
152.472
  0
LINE
  8
0
 10
-2.05823
 20
152.472
 11
-2.10823
 21
152.734
  0
LINE
  8
0
 10
-2.10823
 20
152.734
 11
-2.125
 21
153
  0
LINE
  8
0
 10
-2.125
 20
153
 11
-2.10823
 21
153.266
  0
LINE
  8
0
 10
-2.10823
 20
153.266
 11
-2.05823
 21
153.528
  0
LINE
  8
0
 10
-2.05823
 20
153.528
 11
-1.97577
 21
153.782
  0
LINE
  8
0
 10
-1.97577
 20
153.782
 11
-1.86214
 21
154.024
  0
LINE
  8
0
 10
-1.86214
 20
154.024
 11
-1.71915
 21
154.249
  0
LINE
  8
0
 10
-1.71915
 20
154.249
 11
-1.54906
 21
154.455
  0
LINE
  8
0
 10
-1.54906
 20
154.455
 11
-1.35452
 21
154.637
  0
LINE
  8
0
 10
-1.35452
 20
154.637
 11
-1.13863
 21
154.794
  0
LINE
  8
0
 10
-1.13863
 20
154.794
 11
-0.90477
 21
154.923
  0
LINE
  8
0
 10
-0.90477
 20
154.923
 11
-0.656647
 21
155.021
  0
LINE
  8
0
 10
-0.656647
 20
155.021
 11
-0.398178
 21
155.087
  0
LINE
  8
0
 10
-0.398178
 20
155.087
 11
-0.133423
 21
155.121
  0
LINE
  8
0
 10
-0.133423
 20
155.121
 11
0.133423
 21
155.121
  0
LINE
  8
0
 10
0.133423
 20
155.121
 11
0.398178
 21
155.087
  0
LINE
  8
0
 10
0.398178
 20
155.087
 11
0.656647
 21
155.021
  0
LINE
  8
0
 10
0.656647
 20
155.021
 11
0.90477
 21
154.923
  0
LINE
  8
0
 10
0.90477
 20
154.923
 11
1.13863
 21
154.794
  0
LINE
  8
0
 10
1.13863
 20
154.794
 11
1.35452
 21
154.637
  0
LINE
  8
0
 10
1.35452
 20
154.637
 11
1.54906
 21
154.455
  0
LINE
  8
0
 10
1.54906
 20
154.455
 11
1.71915
 21
154.249
  0
LINE
  8
0
 10
1.71915
 20
154.249
 11
1.86214
 21
154.024
  0
LINE
  8
0
 10
1.86214
 20
154.024
 11
1.97577
 21
153.782
  0
LINE
  8
0
 10
1.97577
 20
153.782
 11
2.05823
 21
153.528
  0
LINE
  8
0
 10
2.05823
 20
153.528
 11
2.10823
 21
153.266
  0
LINE
  8
0
 10
2.10823
 20
153.266
 11
2.125
 21
153
  0
LINE
  8
0
 10
2.125
 20
153
 11
2.10823
 21
152.734
  0
LINE
  8
0
 10
2.10823
 20
152.734
 11
2.05823
 21
152.472
  0
LINE
  8
0
 10
2.05823
 20
152.472
 11
1.97577
 21
152.218
  0
LINE
  8
0
 10
1.97577
 20
152.218
 11
1.86214
 21
151.976
  0
LINE
  8
0
 10
1.86214
 20
151.976
 11
1.71915
 21
151.751
  0
LINE
  8
0
 10
1.71915
 20
151.751
 11
1.54906
 21
151.545
  0
LINE
  8
0
 10
1.54906
 20
151.545
 11
1.35452
 21
151.363
  0
LINE
  8
0
 10
1.35452
 20
151.363
 11
1.13863
 21
151.206
  0
LINE
  8
0
 10
1.13863
 20
151.206
 11
0.90477
 21
151.077
  0
LINE
  8
0
 10
0.90477
 20
151.077
 11
0.656647
 21
150.979
  0
LINE
  8
0
 10
0.656647
 20
150.979
 11
0.398178
 21
150.913
  0
LINE
  8
0
 10
0.398178
 20
150.913
 11
0.133423
 21
150.879
  0
LINE
  8
0
 10
0.133423
 20
150.879
 11
-0.133423
 21
150.879
  0
LINE
  8
0
 10
29.8666
 20
150.879
 11
29.6018
 21
150.913
  0
LINE
  8
0
 10
29.6018
 20
150.913
 11
29.3433
 21
150.979
  0
LINE
  8
0
 10
29.3433
 20
150.979
 11
29.0952
 21
151.077
  0
LINE
  8
0
 10
29.0952
 20
151.077
 11
28.8614
 21
151.206
  0
LINE
  8
0
 10
28.8614
 20
151.206
 11
28.6455
 21
151.363
  0
LINE
  8
0
 10
28.6455
 20
151.363
 11
28.4509
 21
151.545
  0
LINE
  8
0
 10
28.4509
 20
151.545
 11
28.2808
 21
151.751
  0
LINE
  8
0
 10
28.2808
 20
151.751
 11
28.1378
 21
151.976
  0
LINE
  8
0
 10
28.1378
 20
151.976
 11
28.0242
 21
152.218
  0
LINE
  8
0
 10
28.0242
 20
152.218
 11
27.9418
 21
152.472
  0
LINE
  8
0
 10
27.9418
 20
152.472
 11
27.8918
 21
152.734
  0
LINE
  8
0
 10
27.8918
 20
152.734
 11
27.875
 21
153
  0
LINE
  8
0
 10
27.875
 20
153
 11
27.8918
 21
153.266
  0
LINE
  8
0
 10
27.8918
 20
153.266
 11
27.9418
 21
153.528
  0
LINE
  8
0
 10
27.9418
 20
153.528
 11
28.0242
 21
153.782
  0
LINE
  8
0
 10
28.0242
 20
153.782
 11
28.1378
 21
154.024
  0
LINE
  8
0
 10
28.1378
 20
154.024
 11
28.2808
 21
154.249
  0
LINE
  8
0
 10
28.2808
 20
154.249
 11
28.4509
 21
154.455
  0
LINE
  8
0
 10
28.4509
 20
154.455
 11
28.6455
 21
154.637
  0
LINE
  8
0
 10
28.6455
 20
154.637
 11
28.8614
 21
154.794
  0
LINE
  8
0
 10
28.8614
 20
154.794
 11
29.0952
 21
154.923
  0
LINE
  8
0
 10
29.0952
 20
154.923
 11
29.3433
 21
155.021
  0
LINE
  8
0
 10
29.3433
 20
155.021
 11
29.6018
 21
155.087
  0
LINE
  8
0
 10
29.6018
 20
155.087
 11
29.8666
 21
155.121
  0
LINE
  8
0
 10
29.8666
 20
155.121
 11
30.1334
 21
155.121
  0
LINE
  8
0
 10
30.1334
 20
155.121
 11
30.3982
 21
155.087
  0
LINE
  8
0
 10
30.3982
 20
155.087
 11
30.6567
 21
155.021
  0
LINE
  8
0
 10
30.6567
 20
155.021
 11
30.9048
 21
154.923
  0
LINE
  8
0
 10
30.9048
 20
154.923
 11
31.1386
 21
154.794
  0
LINE
  8
0
 10
31.1386
 20
154.794
 11
31.3545
 21
154.637
  0
LINE
  8
0
 10
31.3545
 20
154.637
 11
31.5491
 21
154.455
  0
LINE
  8
0
 10
31.5491
 20
154.455
 11
31.7192
 21
154.249
  0
LINE
  8
0
 10
31.7192
 20
154.249
 11
31.8622
 21
154.024
  0
LINE
  8
0
 10
31.8622
 20
154.024
 11
31.9758
 21
153.782
  0
LINE
  8
0
 10
31.9758
 20
153.782
 11
32.0582
 21
153.528
  0
LINE
  8
0
 10
32.0582
 20
153.528
 11
32.1082
 21
153.266
  0
LINE
  8
0
 10
32.1082
 20
153.266
 11
32.125
 21
153
  0
LINE
  8
0
 10
32.125
 20
153
 11
32.1082
 21
152.734
  0
LINE
  8
0
 10
32.1082
 20
152.734
 11
32.0582
 21
152.472
  0
LINE
  8
0
 10
32.0582
 20
152.472
 11
31.9758
 21
152.218
  0
LINE
  8
0
 10
31.9758
 20
152.218
 11
31.8622
 21
151.976
  0
LINE
  8
0
 10
31.8622
 20
151.976
 11
31.7192
 21
151.751
  0
LINE
  8
0
 10
31.7192
 20
151.751
 11
31.5491
 21
151.545
  0
LINE
  8
0
 10
31.5491
 20
151.545
 11
31.3545
 21
151.363
  0
LINE
  8
0
 10
31.3545
 20
151.363
 11
31.1386
 21
151.206
  0
LINE
  8
0
 10
31.1386
 20
151.206
 11
30.9048
 21
151.077
  0
LINE
  8
0
 10
30.9048
 20
151.077
 11
30.6567
 21
150.979
  0
LINE
  8
0
 10
30.6567
 20
150.979
 11
30.3982
 21
150.913
  0
LINE
  8
0
 10
30.3982
 20
150.913
 11
30.1334
 21
150.879
  0
LINE
  8
0
 10
30.1334
 20
150.879
 11
29.8666
 21
150.879
  0
ENDSEC
  0
SECTION
  2
OBJECTS
  0
DICTIONARY
  0
ENDSEC
  0
EOF
